<svg width="414" height="368" viewBox="0 0 414 368" fill="none" xmlns="http://www.w3.org/2000/svg">
<rect x="56.252" y="32.1527" width="299.273" height="6.6993" fill="white" stroke="#101010"/>
<path d="M187.241 43.25L186.741 37.75L187.491 37.625L186.82 36.507C186.767 36.4192 186.707 36.3362 186.64 36.259C186.491 36.088 186.31 35.9478 186.107 35.8463L185.414 35.5C185.081 35.4167 184.541 35 185.741 35C186.941 35 187.908 36.6667 188.241 37.5L189.741 37.25V40.25L190.741 43.25L187.241 43.75V43.25Z" fill="white"/>
<path d="M186.414 38.75H185.241L187.241 43.25M187.241 43.25L186.741 37.75L188.241 37.5M187.241 43.25V43.75L190.741 43.25L189.741 40.25V37.25L188.241 37.5M188.241 37.5C187.908 36.6667 186.941 35 185.741 35C184.541 35 185.081 35.4167 185.414 35.5L186.107 35.8463C186.31 35.9478 186.491 36.088 186.64 36.259V36.259C186.707 36.3362 186.767 36.4192 186.82 36.507L187.491 37.625" stroke="#676767" stroke-width="0.3" stroke-linejoin="round"/>
<path d="M193.241 43.25L192.741 37.75L193.491 37.625L192.82 36.507C192.767 36.4192 192.707 36.3362 192.64 36.259C192.491 36.088 192.31 35.9478 192.107 35.8463L191.414 35.5C191.081 35.4167 190.541 35 191.741 35C192.941 35 193.908 36.6667 194.241 37.5L195.741 37.25V40.25L196.741 43.25L193.241 43.75V43.25Z" fill="white"/>
<path d="M192.414 38.75H191.241L193.241 43.25M193.241 43.25L192.741 37.75L194.241 37.5M193.241 43.25V43.75L196.741 43.25L195.741 40.25V37.25L194.241 37.5M194.241 37.5C193.908 36.6667 192.941 35 191.741 35C190.541 35 191.081 35.4167 191.414 35.5L192.107 35.8463C192.31 35.9478 192.491 36.088 192.64 36.259V36.259C192.707 36.3362 192.767 36.4192 192.82 36.507L193.491 37.625" stroke="#676767" stroke-width="0.3" stroke-linejoin="round"/>
<path d="M200.241 43.25L199.741 37.75L200.491 37.625L199.82 36.507C199.767 36.4192 199.707 36.3362 199.64 36.259C199.491 36.088 199.31 35.9478 199.107 35.8463L198.414 35.5C198.081 35.4167 197.541 35 198.741 35C199.941 35 200.908 36.6667 201.241 37.5L202.741 37.25V40.25L203.741 43.25L200.241 43.75V43.25Z" fill="white"/>
<path d="M199.414 38.75H198.241L200.241 43.25M200.241 43.25L199.741 37.75L201.241 37.5M200.241 43.25V43.75L203.741 43.25L202.741 40.25V37.25L201.241 37.5M201.241 37.5C200.908 36.6667 199.941 35 198.741 35C197.541 35 198.081 35.4167 198.414 35.5L199.107 35.8463C199.31 35.9478 199.491 36.088 199.64 36.259V36.259C199.707 36.3362 199.767 36.4192 199.82 36.507L200.491 37.625" stroke="#676767" stroke-width="0.3" stroke-linejoin="round"/>
<rect x="56.252" y="28.7308" width="299.273" height="6.6993" fill="white" stroke="#101010"/>
<path d="M62.9473 48.4087C62.752 48.2134 62.4355 48.2134 62.2402 48.4087L59.0582 51.5907C58.863 51.7859 58.863 52.1025 59.0582 52.2978C59.2535 52.493 59.5701 52.493 59.7653 52.2978L62.5937 49.4693L65.4222 52.2978C65.6174 52.493 65.934 52.493 66.1293 52.2978C66.3245 52.1025 66.3245 51.7859 66.1293 51.5907L62.9473 48.4087ZM62.2402 314.314C62.4354 314.509 62.752 314.509 62.9473 314.314L66.1293 311.132C66.3245 310.937 66.3245 310.62 66.1293 310.425C65.934 310.23 65.6174 310.23 65.4222 310.425L62.5937 313.253L59.7653 310.425C59.57 310.23 59.2535 310.23 59.0582 310.425C58.8629 310.62 58.8629 310.937 59.0582 311.132L62.2402 314.314ZM62.0938 48.7622L62.0937 313.96L63.0937 313.96L63.0938 48.7622L62.0938 48.7622Z" fill="#101010"/>
<path d="M62.2413 17.6104C62.0454 17.8051 62.0445 18.1217 62.2391 18.3175L65.4116 21.509C65.6063 21.7048 65.9229 21.7058 66.1187 21.5111C66.3146 21.3164 66.3155 20.9998 66.1208 20.804L63.3009 17.9671L66.1377 15.1472C66.3336 14.9525 66.3345 14.6359 66.1398 14.4401C65.9451 14.2442 65.6286 14.2433 65.4327 14.438L62.2413 17.6104ZM349.531 19.1751C349.727 18.9804 349.728 18.6639 349.533 18.468L346.361 15.2766C346.166 15.0807 345.85 15.0798 345.654 15.2744C345.458 15.4691 345.457 15.7857 345.652 15.9815L348.472 18.8184L345.635 21.6384C345.439 21.8331 345.438 22.1496 345.633 22.3455C345.827 22.5413 346.144 22.5423 346.34 22.3476L349.531 19.1751ZM62.5923 18.465L349.177 19.3205L349.18 18.3205L62.5952 17.465L62.5923 18.465Z" fill="#101010"/>
<path d="M52.1953 201.225L46.2422 199.531V198.711L48.5566 199.186L54.7734 201.008V201.822L52.1953 201.225ZM46.2422 202.977L52.0781 201.629L54.7734 201.225V202.033L46.2422 204.102V202.977ZM52.0723 196.52L46.2422 195.201V194.071L54.7734 196.133V196.942L52.0723 196.52ZM46.2422 198.588L52.1953 196.942L54.7734 196.344V197.158L48.5566 198.916L46.2422 199.397V198.588ZM54.1172 191.199L48.4336 189.436V188.276L55.752 190.819C55.9082 190.877 56.0762 190.955 56.2559 191.053C56.4395 191.147 56.6133 191.268 56.7773 191.416C56.9414 191.565 57.0742 191.744 57.1758 191.955C57.2812 192.162 57.334 192.41 57.334 192.699C57.334 192.785 57.3223 192.895 57.2988 193.028C57.2754 193.16 57.2559 193.254 57.2402 193.309L56.3613 193.315C56.3652 193.283 56.3691 193.235 56.373 193.168C56.3809 193.098 56.3848 193.049 56.3848 193.022C56.3848 192.776 56.3516 192.567 56.2852 192.395C56.2227 192.223 56.1152 192.078 55.9629 191.961C55.8145 191.84 55.6094 191.737 55.3477 191.651L54.1172 191.199ZM48.4336 192.494L53.3555 190.848L54.498 190.567L54.8965 191.346L48.4336 193.678V192.494ZM53.0918 183.606C52.9355 183.606 52.791 183.641 52.6582 183.711C52.5215 183.778 52.3984 183.916 52.2891 184.127C52.1758 184.334 52.0781 184.647 51.9961 185.065C51.9219 185.416 51.834 185.735 51.7324 186.02C51.6309 186.301 51.5078 186.541 51.3633 186.74C51.2188 186.936 51.0488 187.086 50.8535 187.192C50.6582 187.297 50.4297 187.35 50.168 187.35C49.918 187.35 49.6816 187.295 49.459 187.186C49.2363 187.072 49.0391 186.914 48.8672 186.711C48.6953 186.504 48.5605 186.256 48.4629 185.967C48.3652 185.678 48.3164 185.356 48.3164 185C48.3164 184.492 48.4062 184.059 48.5859 183.699C48.7656 183.34 49.0059 183.065 49.3066 182.873C49.6035 182.682 49.9336 182.586 50.2969 182.586V183.67C50.1211 183.67 49.9512 183.723 49.7871 183.828C49.6191 183.93 49.4805 184.08 49.3711 184.28C49.2617 184.475 49.207 184.715 49.207 185C49.207 185.301 49.2539 185.545 49.3477 185.733C49.4375 185.916 49.5527 186.051 49.6934 186.137C49.834 186.219 49.9824 186.26 50.1387 186.26C50.2559 186.26 50.3613 186.24 50.4551 186.201C50.5449 186.158 50.6289 186.084 50.707 185.979C50.7812 185.873 50.8516 185.725 50.918 185.533C50.9844 185.342 51.0508 185.098 51.1172 184.801C51.2344 184.281 51.375 183.854 51.5391 183.518C51.7031 183.182 51.9043 182.932 52.1426 182.768C52.3809 182.604 52.6699 182.522 53.0098 182.522C53.2871 182.522 53.541 182.58 53.7715 182.697C54.002 182.811 54.2012 182.977 54.3691 183.196C54.5332 183.41 54.6621 183.668 54.7559 183.969C54.8457 184.266 54.8906 184.6 54.8906 184.971C54.8906 185.53 54.791 186.002 54.5918 186.389C54.3926 186.776 54.1348 187.069 53.8184 187.268C53.502 187.467 53.168 187.567 52.8164 187.567V186.477C53.1133 186.461 53.3496 186.375 53.5254 186.219C53.6973 186.063 53.8203 185.871 53.8945 185.645C53.9648 185.418 54 185.194 54 184.971C54 184.674 53.9609 184.426 53.8828 184.227C53.8047 184.024 53.6973 183.869 53.5605 183.764C53.4238 183.658 53.2676 183.606 53.0918 183.606ZM51.6738 181.385H51.5391C51.082 181.385 50.6582 181.319 50.2676 181.186C49.873 181.053 49.5312 180.862 49.2422 180.612C48.9492 180.362 48.7227 180.059 48.5625 179.703C48.3984 179.348 48.3164 178.949 48.3164 178.508C48.3164 178.063 48.3984 177.662 48.5625 177.307C48.7227 176.947 48.9492 176.643 49.2422 176.393C49.5312 176.139 49.873 175.946 50.2676 175.813C50.6582 175.68 51.082 175.614 51.5391 175.614H51.6738C52.1309 175.614 52.5547 175.68 52.9453 175.813C53.3359 175.946 53.6777 176.139 53.9707 176.393C54.2598 176.643 54.4863 176.946 54.6504 177.301C54.8105 177.653 54.8906 178.051 54.8906 178.496C54.8906 178.942 54.8105 179.342 54.6504 179.697C54.4863 180.053 54.2598 180.358 53.9707 180.612C53.6777 180.862 53.3359 181.053 52.9453 181.186C52.5547 181.319 52.1309 181.385 51.6738 181.385ZM51.5391 180.301H51.6738C51.9902 180.301 52.2891 180.264 52.5703 180.19C52.8477 180.115 53.0938 180.004 53.3086 179.856C53.5234 179.703 53.6934 179.514 53.8184 179.287C53.9395 179.061 54 178.797 54 178.496C54 178.199 53.9395 177.94 53.8184 177.717C53.6934 177.49 53.5234 177.303 53.3086 177.155C53.0938 177.006 52.8477 176.895 52.5703 176.821C52.2891 176.742 51.9902 176.703 51.6738 176.703H51.5391C51.2266 176.703 50.9316 176.742 50.6543 176.821C50.373 176.895 50.125 177.008 49.9102 177.16C49.6914 177.309 49.5195 177.496 49.3945 177.723C49.2695 177.946 49.207 178.207 49.207 178.508C49.207 178.805 49.2695 179.067 49.3945 179.293C49.5195 179.516 49.6914 179.703 49.9102 179.856C50.125 180.004 50.373 180.115 50.6543 180.19C50.9316 180.264 51.2266 180.301 51.5391 180.301ZM45.7734 173.164H54.7734V174.254H45.7734V173.164ZM48.4336 169.291L51.3926 172.057L52.998 173.604L51.8438 173.692L50.5195 172.584L48.4336 170.615V169.291ZM54.7734 170.281L51.75 172.543L50.7832 171.981L54.7734 169.004V170.281ZM51.6738 168.459H51.5391C51.082 168.459 50.6582 168.393 50.2676 168.26C49.873 168.127 49.5312 167.936 49.2422 167.686C48.9492 167.436 48.7227 167.133 48.5625 166.778C48.3984 166.422 48.3164 166.024 48.3164 165.582C48.3164 165.137 48.3984 164.737 48.5625 164.381C48.7227 164.022 48.9492 163.717 49.2422 163.467C49.5312 163.213 49.873 163.02 50.2676 162.887C50.6582 162.754 51.082 162.688 51.5391 162.688H51.6738C52.1309 162.688 52.5547 162.754 52.9453 162.887C53.3359 163.02 53.6777 163.213 53.9707 163.467C54.2598 163.717 54.4863 164.02 54.6504 164.375C54.8105 164.727 54.8906 165.125 54.8906 165.571C54.8906 166.016 54.8105 166.416 54.6504 166.772C54.4863 167.127 54.2598 167.432 53.9707 167.686C53.6777 167.936 53.3359 168.127 52.9453 168.26C52.5547 168.393 52.1309 168.459 51.6738 168.459ZM51.5391 167.375H51.6738C51.9902 167.375 52.2891 167.338 52.5703 167.264C52.8477 167.19 53.0938 167.078 53.3086 166.93C53.5234 166.778 53.6934 166.588 53.8184 166.362C53.9395 166.135 54 165.871 54 165.571C54 165.274 53.9395 165.014 53.8184 164.791C53.6934 164.565 53.5234 164.377 53.3086 164.229C53.0938 164.08 52.8477 163.969 52.5703 163.895C52.2891 163.817 51.9902 163.778 51.6738 163.778H51.5391C51.2266 163.778 50.9316 163.817 50.6543 163.895C50.373 163.969 50.125 164.082 49.9102 164.235C49.6914 164.383 49.5195 164.571 49.3945 164.797C49.2695 165.02 49.207 165.281 49.207 165.582C49.207 165.879 49.2695 166.141 49.3945 166.367C49.5195 166.59 49.6914 166.778 49.9102 166.93C50.125 167.078 50.373 167.19 50.6543 167.264C50.9316 167.338 51.2266 167.375 51.5391 167.375ZM53.0918 157.637C52.9355 157.637 52.791 157.672 52.6582 157.742C52.5215 157.809 52.3984 157.947 52.2891 158.158C52.1758 158.365 52.0781 158.678 51.9961 159.096C51.9219 159.447 51.834 159.766 51.7324 160.051C51.6309 160.332 51.5078 160.572 51.3633 160.772C51.2188 160.967 51.0488 161.117 50.8535 161.223C50.6582 161.328 50.4297 161.381 50.168 161.381C49.918 161.381 49.6816 161.326 49.459 161.217C49.2363 161.104 49.0391 160.946 48.8672 160.742C48.6953 160.535 48.5605 160.287 48.4629 159.998C48.3652 159.709 48.3164 159.387 48.3164 159.031C48.3164 158.524 48.4062 158.09 48.5859 157.731C48.7656 157.371 49.0059 157.096 49.3066 156.905C49.6035 156.713 49.9336 156.617 50.2969 156.617V157.701C50.1211 157.701 49.9512 157.754 49.7871 157.86C49.6191 157.961 49.4805 158.112 49.3711 158.311C49.2617 158.506 49.207 158.746 49.207 159.031C49.207 159.332 49.2539 159.576 49.3477 159.764C49.4375 159.947 49.5527 160.082 49.6934 160.168C49.834 160.25 49.9824 160.291 50.1387 160.291C50.2559 160.291 50.3613 160.272 50.4551 160.233C50.5449 160.19 50.6289 160.115 50.707 160.01C50.7812 159.905 50.8516 159.756 50.918 159.565C50.9844 159.373 51.0508 159.129 51.1172 158.832C51.2344 158.313 51.375 157.885 51.5391 157.549C51.7031 157.213 51.9043 156.963 52.1426 156.799C52.3809 156.635 52.6699 156.553 53.0098 156.553C53.2871 156.553 53.541 156.612 53.7715 156.729C54.002 156.842 54.2012 157.008 54.3691 157.227C54.5332 157.442 54.6621 157.699 54.7559 158C54.8457 158.297 54.8906 158.631 54.8906 159.002C54.8906 159.561 54.791 160.033 54.5918 160.42C54.3926 160.807 54.1348 161.1 53.8184 161.299C53.502 161.498 53.168 161.598 52.8164 161.598V160.508C53.1133 160.492 53.3496 160.406 53.5254 160.25C53.6973 160.094 53.8203 159.903 53.8945 159.676C53.9648 159.449 54 159.225 54 159.002C54 158.705 53.9609 158.457 53.8828 158.258C53.8047 158.055 53.6973 157.901 53.5605 157.795C53.4238 157.69 53.2676 157.637 53.0918 157.637ZM47.4961 159.459L45.7734 158.322V157.016L47.4961 158.586V159.459ZM54 152.592C54 152.334 53.9473 152.096 53.8418 151.877C53.7363 151.658 53.5918 151.479 53.4082 151.338C53.2207 151.197 53.0078 151.117 52.7695 151.098V150.067C53.1445 150.086 53.4941 150.213 53.8184 150.447C54.1387 150.678 54.3984 150.981 54.5977 151.356C54.793 151.731 54.8906 152.143 54.8906 152.592C54.8906 153.069 54.8066 153.485 54.6387 153.84C54.4707 154.192 54.2402 154.485 53.9473 154.719C53.6543 154.949 53.3184 155.123 52.9395 155.24C52.5566 155.354 52.1523 155.41 51.7266 155.41H51.4805C51.0547 155.41 50.6523 155.354 50.2734 155.24C49.8906 155.123 49.5527 154.949 49.2598 154.719C48.9668 154.485 48.7363 154.192 48.5684 153.84C48.4004 153.485 48.3164 153.069 48.3164 152.592C48.3164 152.096 48.418 151.662 48.6211 151.291C48.8203 150.92 49.0938 150.629 49.4414 150.418C49.7852 150.203 50.1758 150.086 50.6133 150.067V151.098C50.3516 151.117 50.1152 151.192 49.9043 151.321C49.6934 151.446 49.5254 151.617 49.4004 151.836C49.2715 152.051 49.207 152.303 49.207 152.592C49.207 152.924 49.2734 153.203 49.4062 153.43C49.5352 153.653 49.7109 153.83 49.9336 153.963C50.1523 154.092 50.3965 154.186 50.666 154.244C50.9316 154.299 51.2031 154.326 51.4805 154.326H51.7266C52.0039 154.326 52.2773 154.299 52.5469 154.244C52.8164 154.19 53.0605 154.098 53.2793 153.969C53.498 153.836 53.6738 153.658 53.8066 153.436C53.9355 153.209 54 152.928 54 152.592ZM47.4961 153.43L45.7734 152.293V150.987L47.4961 152.557V153.43Z" fill="#101010"/>
<path d="M188.754 8.84375C188.754 8.64453 188.723 8.46875 188.66 8.31641C188.602 8.16016 188.496 8.01953 188.344 7.89453C188.195 7.76953 187.988 7.65039 187.723 7.53711C187.461 7.42383 187.129 7.30859 186.727 7.19141C186.305 7.06641 185.924 6.92773 185.584 6.77539C185.244 6.61914 184.953 6.44141 184.711 6.24219C184.469 6.04297 184.283 5.81445 184.154 5.55664C184.025 5.29883 183.961 5.00391 183.961 4.67188C183.961 4.33984 184.029 4.0332 184.166 3.75195C184.303 3.4707 184.498 3.22656 184.752 3.01953C185.01 2.80859 185.316 2.64453 185.672 2.52734C186.027 2.41016 186.424 2.35156 186.861 2.35156C187.502 2.35156 188.045 2.47461 188.49 2.7207C188.939 2.96289 189.281 3.28125 189.516 3.67578C189.75 4.06641 189.867 4.48438 189.867 4.92969H188.742C188.742 4.60938 188.674 4.32617 188.537 4.08008C188.4 3.83008 188.193 3.63477 187.916 3.49414C187.639 3.34961 187.287 3.27734 186.861 3.27734C186.459 3.27734 186.127 3.33789 185.865 3.45898C185.604 3.58008 185.408 3.74414 185.279 3.95117C185.154 4.1582 185.092 4.39453 185.092 4.66016C185.092 4.83984 185.129 5.00391 185.203 5.15234C185.281 5.29688 185.4 5.43164 185.561 5.55664C185.725 5.68164 185.932 5.79688 186.182 5.90234C186.436 6.00781 186.738 6.10938 187.09 6.20703C187.574 6.34375 187.992 6.49609 188.344 6.66406C188.695 6.83203 188.984 7.02148 189.211 7.23242C189.441 7.43945 189.611 7.67578 189.721 7.94141C189.834 8.20312 189.891 8.5 189.891 8.83203C189.891 9.17969 189.82 9.49414 189.68 9.77539C189.539 10.0566 189.338 10.2969 189.076 10.4961C188.814 10.6953 188.5 10.8496 188.133 10.959C187.77 11.0645 187.363 11.1172 186.914 11.1172C186.52 11.1172 186.131 11.0625 185.748 10.9531C185.369 10.8438 185.023 10.6797 184.711 10.4609C184.402 10.2422 184.154 9.97266 183.967 9.65234C183.783 9.32812 183.691 8.95312 183.691 8.52734H184.816C184.816 8.82031 184.873 9.07227 184.986 9.2832C185.1 9.49023 185.254 9.66211 185.449 9.79883C185.648 9.93555 185.873 10.0371 186.123 10.1035C186.377 10.166 186.641 10.1973 186.914 10.1973C187.309 10.1973 187.643 10.1426 187.916 10.0332C188.189 9.92383 188.396 9.76758 188.537 9.56445C188.682 9.36133 188.754 9.12109 188.754 8.84375ZM195.891 10.1094V11H191.279V10.1094H195.891ZM195.721 5.42773L191.525 11H190.863V10.2031L195.029 4.66016H195.721V5.42773ZM195.24 4.66016V5.55664H190.91V4.66016H195.24ZM199.658 11.1172C199.217 11.1172 198.816 11.043 198.457 10.8945C198.102 10.7422 197.795 10.5293 197.537 10.2559C197.283 9.98242 197.088 9.6582 196.951 9.2832C196.814 8.9082 196.746 8.49805 196.746 8.05273V7.80664C196.746 7.29102 196.822 6.83203 196.975 6.42969C197.127 6.02344 197.334 5.67969 197.596 5.39844C197.857 5.11719 198.154 4.9043 198.486 4.75977C198.818 4.61523 199.162 4.54297 199.518 4.54297C199.971 4.54297 200.361 4.62109 200.689 4.77734C201.021 4.93359 201.293 5.15234 201.504 5.43359C201.715 5.71094 201.871 6.03906 201.973 6.41797C202.074 6.79297 202.125 7.20312 202.125 7.64844V8.13477H197.391V7.25H201.041V7.16797C201.025 6.88672 200.967 6.61328 200.865 6.34766C200.768 6.08203 200.611 5.86328 200.396 5.69141C200.182 5.51953 199.889 5.43359 199.518 5.43359C199.271 5.43359 199.045 5.48633 198.838 5.5918C198.631 5.69336 198.453 5.8457 198.305 6.04883C198.156 6.25195 198.041 6.5 197.959 6.79297C197.877 7.08594 197.836 7.42383 197.836 7.80664V8.05273C197.836 8.35352 197.877 8.63672 197.959 8.90234C198.045 9.16406 198.168 9.39453 198.328 9.59375C198.492 9.79297 198.689 9.94922 198.92 10.0625C199.154 10.1758 199.42 10.2324 199.717 10.2324C200.1 10.2324 200.424 10.1543 200.689 9.99805C200.955 9.8418 201.188 9.63281 201.387 9.37109L202.043 9.89258C201.906 10.0996 201.732 10.2969 201.521 10.4844C201.311 10.6719 201.051 10.8242 200.742 10.9414C200.438 11.0586 200.076 11.1172 199.658 11.1172ZM204.475 5.65625V11H203.391V4.66016H204.445L204.475 5.65625ZM206.455 4.625L206.449 5.63281C206.359 5.61328 206.273 5.60156 206.191 5.59766C206.113 5.58984 206.023 5.58594 205.922 5.58594C205.672 5.58594 205.451 5.625 205.26 5.70312C205.068 5.78125 204.906 5.89062 204.773 6.03125C204.641 6.17188 204.535 6.33984 204.457 6.53516C204.383 6.72656 204.334 6.9375 204.311 7.16797L204.006 7.34375C204.006 6.96094 204.043 6.60156 204.117 6.26562C204.195 5.92969 204.314 5.63281 204.475 5.375C204.635 5.11328 204.838 4.91016 205.084 4.76562C205.334 4.61719 205.631 4.54297 205.975 4.54297C206.053 4.54297 206.143 4.55273 206.244 4.57227C206.346 4.58789 206.416 4.60547 206.455 4.625ZM207.053 7.90039V7.76562C207.053 7.30859 207.119 6.88477 207.252 6.49414C207.385 6.09961 207.576 5.75781 207.826 5.46875C208.076 5.17578 208.379 4.94922 208.734 4.78906C209.09 4.625 209.488 4.54297 209.93 4.54297C210.375 4.54297 210.775 4.625 211.131 4.78906C211.49 4.94922 211.795 5.17578 212.045 5.46875C212.299 5.75781 212.492 6.09961 212.625 6.49414C212.758 6.88477 212.824 7.30859 212.824 7.76562V7.90039C212.824 8.35742 212.758 8.78125 212.625 9.17188C212.492 9.5625 212.299 9.9043 212.045 10.1973C211.795 10.4863 211.492 10.7129 211.137 10.877C210.785 11.0371 210.387 11.1172 209.941 11.1172C209.496 11.1172 209.096 11.0371 208.74 10.877C208.385 10.7129 208.08 10.4863 207.826 10.1973C207.576 9.9043 207.385 9.5625 207.252 9.17188C207.119 8.78125 207.053 8.35742 207.053 7.90039ZM208.137 7.76562V7.90039C208.137 8.2168 208.174 8.51562 208.248 8.79688C208.322 9.07422 208.434 9.32031 208.582 9.53516C208.734 9.75 208.924 9.91992 209.15 10.0449C209.377 10.166 209.641 10.2266 209.941 10.2266C210.238 10.2266 210.498 10.166 210.721 10.0449C210.947 9.91992 211.135 9.75 211.283 9.53516C211.432 9.32031 211.543 9.07422 211.617 8.79688C211.695 8.51562 211.734 8.2168 211.734 7.90039V7.76562C211.734 7.45312 211.695 7.1582 211.617 6.88086C211.543 6.59961 211.43 6.35156 211.277 6.13672C211.129 5.91797 210.941 5.74609 210.715 5.62109C210.492 5.49609 210.23 5.43359 209.93 5.43359C209.633 5.43359 209.371 5.49609 209.145 5.62109C208.922 5.74609 208.734 5.91797 208.582 6.13672C208.434 6.35156 208.322 6.59961 208.248 6.88086C208.174 7.1582 208.137 7.45312 208.137 7.76562ZM215.273 2V11H214.184V2H215.273ZM219.146 4.66016L216.381 7.61914L214.834 9.22461L214.746 8.07031L215.854 6.74609L217.822 4.66016H219.146ZM218.156 11L215.895 7.97656L216.457 7.00977L219.434 11H218.156ZM219.979 7.90039V7.76562C219.979 7.30859 220.045 6.88477 220.178 6.49414C220.311 6.09961 220.502 5.75781 220.752 5.46875C221.002 5.17578 221.305 4.94922 221.66 4.78906C222.016 4.625 222.414 4.54297 222.855 4.54297C223.301 4.54297 223.701 4.625 224.057 4.78906C224.416 4.94922 224.721 5.17578 224.971 5.46875C225.225 5.75781 225.418 6.09961 225.551 6.49414C225.684 6.88477 225.75 7.30859 225.75 7.76562V7.90039C225.75 8.35742 225.684 8.78125 225.551 9.17188C225.418 9.5625 225.225 9.9043 224.971 10.1973C224.721 10.4863 224.418 10.7129 224.062 10.877C223.711 11.0371 223.312 11.1172 222.867 11.1172C222.422 11.1172 222.021 11.0371 221.666 10.877C221.311 10.7129 221.006 10.4863 220.752 10.1973C220.502 9.9043 220.311 9.5625 220.178 9.17188C220.045 8.78125 219.979 8.35742 219.979 7.90039ZM221.062 7.76562V7.90039C221.062 8.2168 221.1 8.51562 221.174 8.79688C221.248 9.07422 221.359 9.32031 221.508 9.53516C221.66 9.75 221.85 9.91992 222.076 10.0449C222.303 10.166 222.566 10.2266 222.867 10.2266C223.164 10.2266 223.424 10.166 223.646 10.0449C223.873 9.91992 224.061 9.75 224.209 9.53516C224.357 9.32031 224.469 9.07422 224.543 8.79688C224.621 8.51562 224.66 8.2168 224.66 7.90039V7.76562C224.66 7.45312 224.621 7.1582 224.543 6.88086C224.469 6.59961 224.355 6.35156 224.203 6.13672C224.055 5.91797 223.867 5.74609 223.641 5.62109C223.418 5.49609 223.156 5.43359 222.855 5.43359C222.559 5.43359 222.297 5.49609 222.07 5.62109C221.848 5.74609 221.66 5.91797 221.508 6.13672C221.359 6.35156 221.248 6.59961 221.174 6.88086C221.1 7.1582 221.062 7.45312 221.062 7.76562ZM230.801 9.31836C230.801 9.16211 230.766 9.01758 230.695 8.88477C230.629 8.74805 230.49 8.625 230.279 8.51562C230.072 8.40234 229.76 8.30469 229.342 8.22266C228.99 8.14844 228.672 8.06055 228.387 7.95898C228.105 7.85742 227.865 7.73438 227.666 7.58984C227.471 7.44531 227.32 7.27539 227.215 7.08008C227.109 6.88477 227.057 6.65625 227.057 6.39453C227.057 6.14453 227.111 5.9082 227.221 5.68555C227.334 5.46289 227.492 5.26562 227.695 5.09375C227.902 4.92188 228.15 4.78711 228.439 4.68945C228.729 4.5918 229.051 4.54297 229.406 4.54297C229.914 4.54297 230.348 4.63281 230.707 4.8125C231.066 4.99219 231.342 5.23242 231.533 5.5332C231.725 5.83008 231.82 6.16016 231.82 6.52344H230.736C230.736 6.34766 230.684 6.17773 230.578 6.01367C230.477 5.8457 230.326 5.70703 230.127 5.59766C229.932 5.48828 229.691 5.43359 229.406 5.43359C229.105 5.43359 228.861 5.48047 228.674 5.57422C228.49 5.66406 228.355 5.7793 228.27 5.91992C228.188 6.06055 228.146 6.20898 228.146 6.36523C228.146 6.48242 228.166 6.58789 228.205 6.68164C228.248 6.77148 228.322 6.85547 228.428 6.93359C228.533 7.00781 228.682 7.07812 228.873 7.14453C229.064 7.21094 229.309 7.27734 229.605 7.34375C230.125 7.46094 230.553 7.60156 230.889 7.76562C231.225 7.92969 231.475 8.13086 231.639 8.36914C231.803 8.60742 231.885 8.89648 231.885 9.23633C231.885 9.51367 231.826 9.76758 231.709 9.99805C231.596 10.2285 231.43 10.4277 231.211 10.5957C230.996 10.7598 230.738 10.8887 230.438 10.9824C230.141 11.0723 229.807 11.1172 229.436 11.1172C228.877 11.1172 228.404 11.0176 228.018 10.8184C227.631 10.6191 227.338 10.3613 227.139 10.0449C226.939 9.72852 226.84 9.39453 226.84 9.04297H227.93C227.945 9.33984 228.031 9.57617 228.188 9.75195C228.344 9.92383 228.535 10.0469 228.762 10.1211C228.988 10.1914 229.213 10.2266 229.436 10.2266C229.732 10.2266 229.98 10.1875 230.18 10.1094C230.383 10.0312 230.537 9.92383 230.643 9.78711C230.748 9.65039 230.801 9.49414 230.801 9.31836ZM228.979 3.72266L230.115 2H231.422L229.852 3.72266H228.979ZM235.846 10.2266C236.104 10.2266 236.342 10.1738 236.561 10.0684C236.779 9.96289 236.959 9.81836 237.1 9.63477C237.24 9.44727 237.32 9.23438 237.34 8.99609H238.371C238.352 9.37109 238.225 9.7207 237.99 10.0449C237.76 10.3652 237.457 10.625 237.082 10.8242C236.707 11.0195 236.295 11.1172 235.846 11.1172C235.369 11.1172 234.953 11.0332 234.598 10.8652C234.246 10.6973 233.953 10.4668 233.719 10.1738C233.488 9.88086 233.314 9.54492 233.197 9.16602C233.084 8.7832 233.027 8.37891 233.027 7.95312V7.70703C233.027 7.28125 233.084 6.87891 233.197 6.5C233.314 6.11719 233.488 5.7793 233.719 5.48633C233.953 5.19336 234.246 4.96289 234.598 4.79492C234.953 4.62695 235.369 4.54297 235.846 4.54297C236.342 4.54297 236.775 4.64453 237.146 4.84766C237.518 5.04688 237.809 5.32031 238.02 5.66797C238.234 6.01172 238.352 6.40234 238.371 6.83984H237.34C237.32 6.57812 237.246 6.3418 237.117 6.13086C236.992 5.91992 236.82 5.75195 236.602 5.62695C236.387 5.49805 236.135 5.43359 235.846 5.43359C235.514 5.43359 235.234 5.5 235.008 5.63281C234.785 5.76172 234.607 5.9375 234.475 6.16016C234.346 6.37891 234.252 6.62305 234.193 6.89258C234.139 7.1582 234.111 7.42969 234.111 7.70703V7.95312C234.111 8.23047 234.139 8.50391 234.193 8.77344C234.248 9.04297 234.34 9.28711 234.469 9.50586C234.602 9.72461 234.779 9.90039 235.002 10.0332C235.229 10.1621 235.51 10.2266 235.846 10.2266ZM235.008 3.72266L236.145 2H237.451L235.881 3.72266H235.008Z" fill="#101010"/>
<path d="M1 367L30.9417 337.058H382.971L412.913 367" stroke="#101010"/>
<rect x="154.629" y="79.0378" width="108.034" height="171.204" stroke="#101010"/>
<rect x="148.404" y="71.6824" width="120.149" height="185.05" stroke="#101010"/>
<rect x="138.887" y="56.1061" width="140.052" height="216.203" stroke="#101010"/>
<rect x="131.531" y="273.309" width="153.897" height="6.78814" stroke="#101010"/>
<path d="M208.879 78.5378L208.879 250.31" stroke="#101010"/>
<path d="M75.3066 318.469H76.0332L79.1855 325.98L82.3438 318.469H83.0645L79.4609 327H78.9102L75.3066 318.469ZM75.084 318.469H75.7227L75.7988 323.273V327H75.084V318.469ZM82.6602 318.469H83.2988V327H82.5781V323.273L82.6602 318.469ZM86.082 320.66V327H85.3848V320.66H86.082ZM85.2617 318.826C85.2617 318.693 85.3027 318.582 85.3848 318.492C85.4707 318.398 85.5879 318.352 85.7363 318.352C85.8848 318.352 86.002 318.398 86.0879 318.492C86.1777 318.582 86.2227 318.693 86.2227 318.826C86.2227 318.955 86.1777 319.066 86.0879 319.16C86.002 319.25 85.8848 319.295 85.7363 319.295C85.5879 319.295 85.4707 319.25 85.3848 319.16C85.3027 319.066 85.2617 318.955 85.2617 318.826ZM88.6953 322.014V327H87.998V320.66H88.666L88.6953 322.014ZM88.5371 323.438L88.2266 323.262C88.25 322.887 88.3262 322.535 88.4551 322.207C88.584 321.879 88.7578 321.59 88.9766 321.34C89.1992 321.09 89.459 320.895 89.7559 320.754C90.0566 320.613 90.3887 320.543 90.752 320.543C91.0684 320.543 91.3516 320.586 91.6016 320.672C91.8516 320.758 92.0645 320.895 92.2402 321.082C92.416 321.27 92.5488 321.51 92.6387 321.803C92.7324 322.096 92.7793 322.453 92.7793 322.875V327H92.0762V322.869C92.0762 322.432 92.0156 322.09 91.8945 321.844C91.7734 321.594 91.6016 321.416 91.3789 321.311C91.1562 321.205 90.8926 321.152 90.5879 321.152C90.252 321.152 89.957 321.227 89.7031 321.375C89.4531 321.52 89.2422 321.709 89.0703 321.943C88.9023 322.174 88.7734 322.422 88.6836 322.688C88.5938 322.949 88.5449 323.199 88.5371 323.438ZM98.6562 325.535V320.66H99.3594V327H98.6855L98.6562 325.535ZM98.7852 324.363L99.1484 324.352C99.1484 324.75 99.1016 325.117 99.0078 325.453C98.9141 325.789 98.7676 326.082 98.5684 326.332C98.3691 326.582 98.1113 326.775 97.7949 326.912C97.4785 327.049 97.0977 327.117 96.6523 327.117C96.3438 327.117 96.0605 327.074 95.8027 326.988C95.5488 326.898 95.3301 326.758 95.1465 326.566C94.9629 326.375 94.8203 326.127 94.7188 325.822C94.6211 325.518 94.5723 325.148 94.5723 324.715V320.66H95.2695V324.727C95.2695 325.066 95.3066 325.35 95.3809 325.576C95.459 325.803 95.5645 325.984 95.6973 326.121C95.834 326.258 95.9902 326.355 96.166 326.414C96.3418 326.473 96.5312 326.502 96.7344 326.502C97.25 326.502 97.6562 326.402 97.9531 326.203C98.2539 326.004 98.4668 325.742 98.5918 325.418C98.7207 325.09 98.7852 324.738 98.7852 324.363ZM104.99 325.383C104.99 325.211 104.947 325.041 104.861 324.873C104.775 324.705 104.609 324.551 104.363 324.41C104.121 324.27 103.764 324.15 103.291 324.053C102.939 323.975 102.625 323.887 102.348 323.789C102.074 323.691 101.844 323.574 101.656 323.438C101.469 323.301 101.326 323.137 101.229 322.945C101.131 322.754 101.082 322.527 101.082 322.266C101.082 322.031 101.133 321.811 101.234 321.604C101.34 321.393 101.488 321.209 101.68 321.053C101.875 320.893 102.109 320.768 102.383 320.678C102.66 320.588 102.971 320.543 103.314 320.543C103.803 320.543 104.221 320.627 104.568 320.795C104.92 320.959 105.188 321.184 105.371 321.469C105.559 321.754 105.652 322.076 105.652 322.436H104.955C104.955 322.217 104.891 322.01 104.762 321.814C104.637 321.619 104.451 321.459 104.205 321.334C103.963 321.209 103.666 321.146 103.314 321.146C102.951 321.146 102.656 321.201 102.43 321.311C102.203 321.42 102.037 321.559 101.932 321.727C101.83 321.895 101.779 322.068 101.779 322.248C101.779 322.389 101.801 322.518 101.844 322.635C101.891 322.748 101.973 322.854 102.09 322.951C102.211 323.049 102.383 323.141 102.605 323.227C102.828 323.312 103.117 323.396 103.473 323.479C103.984 323.592 104.402 323.73 104.727 323.895C105.055 324.055 105.297 324.254 105.453 324.492C105.609 324.727 105.688 325.012 105.688 325.348C105.688 325.609 105.633 325.85 105.523 326.068C105.414 326.283 105.256 326.469 105.049 326.625C104.846 326.781 104.6 326.902 104.311 326.988C104.025 327.074 103.705 327.117 103.35 327.117C102.814 327.117 102.361 327.029 101.99 326.854C101.623 326.674 101.344 326.439 101.152 326.15C100.965 325.857 100.871 325.547 100.871 325.219H101.568C101.592 325.547 101.695 325.807 101.879 325.998C102.062 326.186 102.287 326.318 102.553 326.396C102.822 326.475 103.088 326.514 103.35 326.514C103.709 326.514 104.01 326.461 104.252 326.355C104.494 326.25 104.678 326.111 104.803 325.939C104.928 325.768 104.99 325.582 104.99 325.383ZM115.432 326.396V327H110.094V326.455L112.889 323.285C113.236 322.891 113.514 322.545 113.721 322.248C113.928 321.947 114.076 321.674 114.166 321.428C114.26 321.178 114.307 320.936 114.307 320.701C114.307 320.357 114.238 320.055 114.102 319.793C113.969 319.531 113.77 319.326 113.504 319.178C113.238 319.029 112.91 318.955 112.52 318.955C112.129 318.955 111.789 319.039 111.5 319.207C111.211 319.375 110.988 319.609 110.832 319.91C110.68 320.207 110.604 320.545 110.604 320.924H109.906C109.906 320.455 110.01 320.025 110.217 319.635C110.428 319.244 110.729 318.934 111.119 318.703C111.51 318.469 111.977 318.352 112.52 318.352C113.035 318.352 113.479 318.443 113.85 318.627C114.221 318.807 114.506 319.066 114.705 319.406C114.908 319.746 115.01 320.156 115.01 320.637C115.01 320.895 114.963 321.154 114.869 321.416C114.779 321.678 114.654 321.939 114.494 322.201C114.338 322.459 114.158 322.715 113.955 322.969C113.756 323.223 113.547 323.473 113.328 323.719L110.949 326.396H115.432ZM119.041 322.934V323.537H116.234V322.934H119.041ZM121.221 322.781L120.67 322.623L121.086 318.469H125.352V319.125H121.684L121.385 321.996C121.533 321.891 121.748 321.787 122.029 321.686C122.314 321.58 122.635 321.527 122.99 321.527C123.369 321.527 123.713 321.592 124.021 321.721C124.334 321.846 124.602 322.029 124.824 322.271C125.047 322.51 125.219 322.799 125.34 323.139C125.461 323.475 125.521 323.855 125.521 324.281C125.521 324.691 125.471 325.068 125.369 325.412C125.268 325.756 125.113 326.057 124.906 326.314C124.699 326.568 124.436 326.766 124.115 326.906C123.795 327.047 123.414 327.117 122.973 327.117C122.633 327.117 122.312 327.07 122.012 326.977C121.715 326.879 121.449 326.732 121.215 326.537C120.98 326.342 120.789 326.096 120.641 325.799C120.496 325.502 120.406 325.154 120.371 324.756H121.045C121.092 325.139 121.195 325.461 121.355 325.723C121.516 325.984 121.73 326.182 122 326.314C122.273 326.447 122.598 326.514 122.973 326.514C123.277 326.514 123.543 326.465 123.77 326.367C124 326.27 124.191 326.127 124.344 325.939C124.5 325.748 124.617 325.516 124.695 325.242C124.777 324.965 124.818 324.648 124.818 324.293C124.818 323.988 124.775 323.709 124.689 323.455C124.604 323.197 124.477 322.973 124.309 322.781C124.145 322.586 123.941 322.436 123.699 322.33C123.457 322.225 123.18 322.172 122.867 322.172C122.461 322.172 122.137 322.227 121.895 322.336C121.656 322.445 121.432 322.594 121.221 322.781ZM132.23 326.514C132.527 326.514 132.805 326.459 133.062 326.35C133.324 326.236 133.539 326.07 133.707 325.852C133.879 325.629 133.977 325.357 134 325.037H134.668C134.648 325.439 134.525 325.799 134.299 326.115C134.076 326.428 133.783 326.674 133.42 326.854C133.061 327.029 132.664 327.117 132.23 327.117C131.789 327.117 131.398 327.037 131.059 326.877C130.723 326.717 130.441 326.494 130.215 326.209C129.988 325.92 129.816 325.584 129.699 325.201C129.586 324.814 129.529 324.398 129.529 323.953V323.707C129.529 323.262 129.586 322.848 129.699 322.465C129.816 322.078 129.988 321.742 130.215 321.457C130.441 321.168 130.723 320.943 131.059 320.783C131.395 320.623 131.783 320.543 132.225 320.543C132.678 320.543 133.084 320.635 133.443 320.818C133.807 321.002 134.096 321.262 134.311 321.598C134.529 321.934 134.648 322.332 134.668 322.793H134C133.98 322.453 133.891 322.16 133.73 321.914C133.57 321.668 133.359 321.479 133.098 321.346C132.836 321.213 132.545 321.146 132.225 321.146C131.865 321.146 131.559 321.217 131.305 321.357C131.051 321.494 130.844 321.684 130.684 321.926C130.527 322.164 130.412 322.438 130.338 322.746C130.264 323.051 130.227 323.371 130.227 323.707V323.953C130.227 324.293 130.262 324.617 130.332 324.926C130.406 325.23 130.521 325.502 130.678 325.74C130.838 325.979 131.045 326.168 131.299 326.309C131.557 326.445 131.867 326.514 132.23 326.514ZM136.742 321.973V327H136.039V320.66H136.713L136.742 321.973ZM136.613 323.438L136.273 323.262C136.297 322.887 136.367 322.535 136.484 322.207C136.605 321.879 136.773 321.59 136.988 321.34C137.203 321.09 137.461 320.895 137.762 320.754C138.062 320.613 138.404 320.543 138.787 320.543C139.096 320.543 139.375 320.586 139.625 320.672C139.879 320.754 140.094 320.885 140.27 321.064C140.449 321.24 140.588 321.471 140.686 321.756C140.783 322.041 140.832 322.383 140.832 322.781V327H140.135V322.805C140.135 322.383 140.068 322.053 139.936 321.814C139.807 321.576 139.625 321.406 139.391 321.305C139.16 321.203 138.893 321.152 138.588 321.152C138.229 321.152 137.924 321.227 137.674 321.375C137.428 321.52 137.227 321.709 137.07 321.943C136.918 322.174 136.805 322.422 136.73 322.688C136.656 322.949 136.617 323.199 136.613 323.438ZM140.826 322.887L140.357 322.898C140.377 322.59 140.447 322.295 140.568 322.014C140.693 321.732 140.863 321.482 141.078 321.264C141.293 321.041 141.549 320.865 141.846 320.736C142.146 320.607 142.484 320.543 142.859 320.543C143.188 320.543 143.48 320.588 143.738 320.678C143.996 320.764 144.213 320.902 144.389 321.094C144.568 321.281 144.705 321.521 144.799 321.814C144.893 322.107 144.939 322.459 144.939 322.869V327H144.236V322.863C144.236 322.414 144.17 322.066 144.037 321.82C143.908 321.57 143.729 321.396 143.498 321.299C143.268 321.201 142.998 321.152 142.689 321.152C142.385 321.156 142.117 321.213 141.887 321.322C141.656 321.428 141.463 321.568 141.307 321.744C141.154 321.916 141.037 322.102 140.955 322.301C140.877 322.5 140.834 322.695 140.826 322.887ZM149.557 323.637V323.549C149.557 322.787 149.637 322.074 149.797 321.41C149.957 320.746 150.166 320.148 150.424 319.617C150.686 319.086 150.971 318.635 151.279 318.264C151.592 317.889 151.898 317.611 152.199 317.432L152.369 317.912C152.111 318.096 151.855 318.361 151.602 318.709C151.352 319.057 151.125 319.475 150.922 319.963C150.719 320.451 150.557 320.996 150.436 321.598C150.314 322.199 150.254 322.844 150.254 323.531V323.648C150.254 324.336 150.314 324.98 150.436 325.582C150.557 326.184 150.719 326.729 150.922 327.217C151.125 327.709 151.352 328.131 151.602 328.482C151.855 328.838 152.111 329.111 152.369 329.303L152.199 329.754C151.898 329.574 151.592 329.301 151.279 328.934C150.971 328.57 150.686 328.125 150.424 327.598C150.166 327.074 149.957 326.479 149.797 325.811C149.637 325.143 149.557 324.418 149.557 323.637ZM157.279 325.383C157.279 325.211 157.236 325.041 157.15 324.873C157.064 324.705 156.898 324.551 156.652 324.41C156.41 324.27 156.053 324.15 155.58 324.053C155.229 323.975 154.914 323.887 154.637 323.789C154.363 323.691 154.133 323.574 153.945 323.438C153.758 323.301 153.615 323.137 153.518 322.945C153.42 322.754 153.371 322.527 153.371 322.266C153.371 322.031 153.422 321.811 153.523 321.604C153.629 321.393 153.777 321.209 153.969 321.053C154.164 320.893 154.398 320.768 154.672 320.678C154.949 320.588 155.26 320.543 155.604 320.543C156.092 320.543 156.51 320.627 156.857 320.795C157.209 320.959 157.477 321.184 157.66 321.469C157.848 321.754 157.941 322.076 157.941 322.436H157.244C157.244 322.217 157.18 322.01 157.051 321.814C156.926 321.619 156.74 321.459 156.494 321.334C156.252 321.209 155.955 321.146 155.604 321.146C155.24 321.146 154.945 321.201 154.719 321.311C154.492 321.42 154.326 321.559 154.221 321.727C154.119 321.895 154.068 322.068 154.068 322.248C154.068 322.389 154.09 322.518 154.133 322.635C154.18 322.748 154.262 322.854 154.379 322.951C154.5 323.049 154.672 323.141 154.895 323.227C155.117 323.312 155.406 323.396 155.762 323.479C156.273 323.592 156.691 323.73 157.016 323.895C157.344 324.055 157.586 324.254 157.742 324.492C157.898 324.727 157.977 325.012 157.977 325.348C157.977 325.609 157.922 325.85 157.812 326.068C157.703 326.283 157.545 326.469 157.338 326.625C157.135 326.781 156.889 326.902 156.6 326.988C156.314 327.074 155.994 327.117 155.639 327.117C155.104 327.117 154.65 327.029 154.279 326.854C153.912 326.674 153.633 326.439 153.441 326.15C153.254 325.857 153.16 325.547 153.16 325.219H153.857C153.881 325.547 153.984 325.807 154.168 325.998C154.352 326.186 154.576 326.318 154.842 326.396C155.111 326.475 155.377 326.514 155.639 326.514C155.998 326.514 156.299 326.461 156.541 326.355C156.783 326.25 156.967 326.111 157.092 325.939C157.217 325.768 157.279 325.582 157.279 325.383ZM161.961 320.66V321.234H158.785V320.66H161.961ZM159.951 319.031H160.648V325.459C160.648 325.752 160.688 325.973 160.766 326.121C160.844 326.27 160.945 326.369 161.07 326.42C161.195 326.471 161.33 326.496 161.475 326.496C161.58 326.496 161.682 326.49 161.779 326.479C161.877 326.463 161.965 326.447 162.043 326.432L162.072 327.023C161.986 327.051 161.875 327.072 161.738 327.088C161.602 327.107 161.465 327.117 161.328 327.117C161.059 327.117 160.82 327.068 160.613 326.971C160.406 326.869 160.244 326.697 160.127 326.455C160.01 326.209 159.951 325.875 159.951 325.453V319.031ZM167.287 325.863V322.594C167.287 322.293 167.225 322.033 167.1 321.814C166.975 321.596 166.791 321.428 166.549 321.311C166.307 321.193 166.008 321.135 165.652 321.135C165.324 321.135 165.031 321.193 164.773 321.311C164.52 321.424 164.318 321.578 164.17 321.773C164.025 321.965 163.953 322.178 163.953 322.412L163.25 322.406C163.25 322.168 163.309 321.938 163.426 321.715C163.543 321.492 163.709 321.293 163.924 321.117C164.139 320.941 164.395 320.803 164.691 320.701C164.992 320.596 165.322 320.543 165.682 320.543C166.135 320.543 166.533 320.619 166.877 320.771C167.225 320.924 167.496 321.152 167.691 321.457C167.887 321.762 167.984 322.145 167.984 322.605V325.67C167.984 325.889 168 326.115 168.031 326.35C168.066 326.584 168.115 326.777 168.178 326.93V327H167.434C167.387 326.859 167.35 326.684 167.322 326.473C167.299 326.258 167.287 326.055 167.287 325.863ZM167.451 323.309L167.463 323.848H166.086C165.727 323.848 165.404 323.881 165.119 323.947C164.838 324.01 164.6 324.104 164.404 324.229C164.209 324.35 164.059 324.496 163.953 324.668C163.852 324.84 163.801 325.035 163.801 325.254C163.801 325.48 163.857 325.688 163.971 325.875C164.088 326.062 164.252 326.213 164.463 326.326C164.678 326.436 164.932 326.49 165.225 326.49C165.615 326.49 165.959 326.418 166.256 326.273C166.557 326.129 166.805 325.939 167 325.705C167.195 325.471 167.326 325.215 167.393 324.938L167.697 325.342C167.646 325.537 167.553 325.738 167.416 325.945C167.283 326.148 167.109 326.34 166.895 326.52C166.68 326.695 166.426 326.84 166.133 326.953C165.844 327.062 165.516 327.117 165.148 327.117C164.734 327.117 164.373 327.039 164.064 326.883C163.76 326.727 163.521 326.514 163.35 326.244C163.182 325.971 163.098 325.662 163.098 325.318C163.098 325.006 163.164 324.727 163.297 324.48C163.43 324.23 163.621 324.02 163.871 323.848C164.125 323.672 164.43 323.539 164.785 323.449C165.145 323.355 165.547 323.309 165.992 323.309H167.451ZM170.562 322.014V327H169.865V320.66H170.533L170.562 322.014ZM170.404 323.438L170.094 323.262C170.117 322.887 170.193 322.535 170.322 322.207C170.451 321.879 170.625 321.59 170.844 321.34C171.066 321.09 171.326 320.895 171.623 320.754C171.924 320.613 172.256 320.543 172.619 320.543C172.936 320.543 173.219 320.586 173.469 320.672C173.719 320.758 173.932 320.895 174.107 321.082C174.283 321.27 174.416 321.51 174.506 321.803C174.6 322.096 174.646 322.453 174.646 322.875V327H173.943V322.869C173.943 322.432 173.883 322.09 173.762 321.844C173.641 321.594 173.469 321.416 173.246 321.311C173.023 321.205 172.76 321.152 172.455 321.152C172.119 321.152 171.824 321.227 171.57 321.375C171.32 321.52 171.109 321.709 170.938 321.943C170.77 322.174 170.641 322.422 170.551 322.688C170.461 322.949 170.412 323.199 170.404 323.438ZM180.582 325.77V318H181.285V327H180.629L180.582 325.77ZM176.182 323.895V323.771C176.182 323.279 176.238 322.836 176.352 322.441C176.465 322.043 176.627 321.703 176.838 321.422C177.053 321.137 177.311 320.92 177.611 320.771C177.912 320.619 178.252 320.543 178.631 320.543C179.002 320.543 179.33 320.604 179.615 320.725C179.9 320.846 180.145 321.02 180.348 321.246C180.555 321.473 180.721 321.742 180.846 322.055C180.975 322.367 181.068 322.715 181.127 323.098V324.662C181.08 325.021 180.994 325.352 180.869 325.652C180.744 325.949 180.578 326.209 180.371 326.432C180.164 326.65 179.914 326.82 179.621 326.941C179.332 327.059 178.998 327.117 178.619 327.117C178.244 327.117 177.906 327.039 177.605 326.883C177.305 326.727 177.049 326.506 176.838 326.221C176.627 325.932 176.465 325.59 176.352 325.195C176.238 324.801 176.182 324.367 176.182 323.895ZM176.885 323.771V323.895C176.885 324.266 176.922 324.609 176.996 324.926C177.07 325.242 177.184 325.518 177.336 325.752C177.488 325.986 177.682 326.17 177.916 326.303C178.15 326.436 178.428 326.502 178.748 326.502C179.15 326.502 179.488 326.426 179.762 326.273C180.035 326.117 180.254 325.912 180.418 325.658C180.582 325.4 180.701 325.119 180.775 324.814V322.992C180.729 322.785 180.66 322.574 180.57 322.359C180.48 322.145 180.357 321.947 180.201 321.768C180.049 321.584 179.854 321.438 179.615 321.328C179.381 321.215 179.096 321.158 178.76 321.158C178.436 321.158 178.156 321.225 177.922 321.357C177.688 321.49 177.492 321.676 177.336 321.914C177.184 322.148 177.07 322.424 176.996 322.74C176.922 323.057 176.885 323.4 176.885 323.771ZM186.986 325.863V322.594C186.986 322.293 186.924 322.033 186.799 321.814C186.674 321.596 186.49 321.428 186.248 321.311C186.006 321.193 185.707 321.135 185.352 321.135C185.023 321.135 184.73 321.193 184.473 321.311C184.219 321.424 184.018 321.578 183.869 321.773C183.725 321.965 183.652 322.178 183.652 322.412L182.949 322.406C182.949 322.168 183.008 321.938 183.125 321.715C183.242 321.492 183.408 321.293 183.623 321.117C183.838 320.941 184.094 320.803 184.391 320.701C184.691 320.596 185.021 320.543 185.381 320.543C185.834 320.543 186.232 320.619 186.576 320.771C186.924 320.924 187.195 321.152 187.391 321.457C187.586 321.762 187.684 322.145 187.684 322.605V325.67C187.684 325.889 187.699 326.115 187.73 326.35C187.766 326.584 187.814 326.777 187.877 326.93V327H187.133C187.086 326.859 187.049 326.684 187.021 326.473C186.998 326.258 186.986 326.055 186.986 325.863ZM187.15 323.309L187.162 323.848H185.785C185.426 323.848 185.104 323.881 184.818 323.947C184.537 324.01 184.299 324.104 184.104 324.229C183.908 324.35 183.758 324.496 183.652 324.668C183.551 324.84 183.5 325.035 183.5 325.254C183.5 325.48 183.557 325.688 183.67 325.875C183.787 326.062 183.951 326.213 184.162 326.326C184.377 326.436 184.631 326.49 184.924 326.49C185.314 326.49 185.658 326.418 185.955 326.273C186.256 326.129 186.504 325.939 186.699 325.705C186.895 325.471 187.025 325.215 187.092 324.938L187.396 325.342C187.346 325.537 187.252 325.738 187.115 325.945C186.982 326.148 186.809 326.34 186.594 326.52C186.379 326.695 186.125 326.84 185.832 326.953C185.543 327.062 185.215 327.117 184.848 327.117C184.434 327.117 184.072 327.039 183.764 326.883C183.459 326.727 183.221 326.514 183.049 326.244C182.881 325.971 182.797 325.662 182.797 325.318C182.797 325.006 182.863 324.727 182.996 324.48C183.129 324.23 183.32 324.02 183.57 323.848C183.824 323.672 184.129 323.539 184.484 323.449C184.844 323.355 185.246 323.309 185.691 323.309H187.15ZM190.262 321.709V327H189.564V320.66H190.244L190.262 321.709ZM192.506 320.613L192.488 321.258C192.41 321.246 192.334 321.236 192.26 321.229C192.186 321.221 192.105 321.217 192.02 321.217C191.715 321.217 191.447 321.273 191.217 321.387C190.99 321.496 190.799 321.65 190.643 321.85C190.486 322.045 190.367 322.275 190.285 322.541C190.203 322.803 190.156 323.084 190.145 323.385L189.887 323.484C189.887 323.07 189.93 322.686 190.016 322.33C190.102 321.975 190.232 321.664 190.408 321.398C190.588 321.129 190.812 320.92 191.082 320.771C191.355 320.619 191.676 320.543 192.043 320.543C192.133 320.543 192.221 320.551 192.307 320.566C192.396 320.578 192.463 320.594 192.506 320.613ZM196.297 320.66V321.234H193.121V320.66H196.297ZM194.287 319.031H194.984V325.459C194.984 325.752 195.023 325.973 195.102 326.121C195.18 326.27 195.281 326.369 195.406 326.42C195.531 326.471 195.666 326.496 195.811 326.496C195.916 326.496 196.018 326.49 196.115 326.479C196.213 326.463 196.301 326.447 196.379 326.432L196.408 327.023C196.322 327.051 196.211 327.072 196.074 327.088C195.938 327.107 195.801 327.117 195.664 327.117C195.395 327.117 195.156 327.068 194.949 326.971C194.742 326.869 194.58 326.697 194.463 326.455C194.346 326.209 194.287 325.875 194.287 325.453V319.031ZM199.859 323.549V323.637C199.859 324.418 199.779 325.143 199.619 325.811C199.459 326.479 199.248 327.074 198.986 327.598C198.725 328.125 198.439 328.57 198.131 328.934C197.822 329.301 197.516 329.574 197.211 329.754L197.041 329.303C197.303 329.119 197.559 328.852 197.809 328.5C198.059 328.148 198.285 327.725 198.488 327.229C198.695 326.736 198.859 326.189 198.98 325.588C199.102 324.982 199.162 324.336 199.162 323.648V323.531C199.162 322.844 199.1 322.199 198.975 321.598C198.85 320.992 198.684 320.443 198.477 319.951C198.27 319.459 198.041 319.037 197.791 318.686C197.541 318.334 197.291 318.068 197.041 317.889L197.211 317.432C197.516 317.611 197.822 317.889 198.131 318.264C198.439 318.635 198.725 319.086 198.986 319.617C199.248 320.148 199.459 320.746 199.619 321.41C199.779 322.074 199.859 322.787 199.859 323.549Z" fill="#101010"/>
</svg>
