<svg width="414" height="368" viewBox="0 0 414 368" fill="none" xmlns="http://www.w3.org/2000/svg">
<rect x="56.252" y="32.1527" width="299.273" height="6.6993" fill="white" stroke="#101010"/>
<path d="M185.017 42.6261L184.517 42.6071L185.017 42.6261ZM182.967 34.0859L179.572 40.8625L180.466 41.3104L183.861 34.5339L182.967 34.0859ZM185.516 42.6451L185.616 40.0149L184.617 39.9769L184.517 42.6071L185.516 42.6451ZM179.667 43.9727L179.731 44.084L180.597 43.5823L180.532 43.4711L179.667 43.9727ZM179.731 44.084C180.421 45.2722 181.809 45.866 183.144 45.5436L182.909 44.5716C182.004 44.7901 181.064 44.3876 180.597 43.5823L179.731 44.084ZM184.517 42.6071C184.481 43.5481 183.825 44.3506 182.909 44.5716L183.144 45.5436C184.495 45.2175 185.464 44.0334 185.516 42.6451L184.517 42.6071ZM179.572 40.8625C179.078 41.849 179.113 43.0182 179.667 43.9727L180.532 43.4711C180.147 42.808 180.123 41.9958 180.466 41.3104L179.572 40.8625Z" fill="#676767"/>
<path d="M191.476 42.6261L190.976 42.6071L191.476 42.6261ZM189.426 34.0859L186.031 40.8625L186.925 41.3104L190.32 34.5339L189.426 34.0859ZM191.975 42.6451L192.075 40.0149L191.076 39.9769L190.976 42.6071L191.975 42.6451ZM186.126 43.9727L186.19 44.084L187.056 43.5823L186.991 43.4711L186.126 43.9727ZM186.19 44.084C186.88 45.2722 188.268 45.866 189.603 45.5436L189.368 44.5716C188.463 44.7901 187.523 44.3876 187.056 43.5823L186.19 44.084ZM190.976 42.6071C190.94 43.5481 190.284 44.3506 189.368 44.5716L189.603 45.5436C190.954 45.2175 191.923 44.0334 191.975 42.6451L190.976 42.6071ZM186.031 40.8625C185.537 41.849 185.572 43.0182 186.126 43.9727L186.991 43.4711C186.606 42.808 186.582 41.9958 186.925 41.3104L186.031 40.8625Z" fill="#676767"/>
<path d="M197.935 42.6261L197.435 42.6071L197.935 42.6261ZM195.885 34.0859L192.49 40.8625L193.384 41.3104L196.779 34.5339L195.885 34.0859ZM198.434 42.6451L198.534 40.0149L197.535 39.9769L197.435 42.6071L198.434 42.6451ZM192.585 43.9727L192.649 44.084L193.515 43.5823L193.45 43.4711L192.585 43.9727ZM192.649 44.084C193.339 45.2722 194.727 45.866 196.062 45.5436L195.827 44.5716C194.922 44.7901 193.982 44.3876 193.515 43.5823L192.649 44.084ZM197.435 42.6071C197.399 43.5481 196.743 44.3506 195.827 44.5716L196.062 45.5436C197.413 45.2175 198.382 44.0334 198.434 42.6451L197.435 42.6071ZM192.49 40.8625C191.996 41.849 192.031 43.0182 192.585 43.9727L193.45 43.4711C193.065 42.808 193.041 41.9958 193.384 41.3104L192.49 40.8625Z" fill="#676767"/>
<rect x="56.252" y="28.7308" width="299.273" height="6.6993" fill="white" stroke="#101010"/>
<path d="M62.9473 48.4087C62.752 48.2134 62.4355 48.2134 62.2402 48.4087L59.0582 51.5907C58.863 51.7859 58.863 52.1025 59.0582 52.2978C59.2535 52.493 59.5701 52.493 59.7653 52.2978L62.5937 49.4693L65.4222 52.2978C65.6174 52.493 65.934 52.493 66.1293 52.2978C66.3245 52.1025 66.3245 51.7859 66.1293 51.5907L62.9473 48.4087ZM62.2402 314.314C62.4354 314.509 62.752 314.509 62.9473 314.314L66.1293 311.132C66.3245 310.937 66.3245 310.62 66.1293 310.425C65.934 310.23 65.6174 310.23 65.4222 310.425L62.5937 313.253L59.7653 310.425C59.57 310.23 59.2535 310.23 59.0582 310.425C58.8629 310.62 58.8629 310.937 59.0582 311.132L62.2402 314.314ZM62.0938 48.7622L62.0937 313.96L63.0937 313.96L63.0938 48.7622L62.0938 48.7622Z" fill="#101010"/>
<path d="M62.2413 17.6104C62.0454 17.8051 62.0445 18.1217 62.2391 18.3175L65.4116 21.509C65.6063 21.7048 65.9229 21.7058 66.1187 21.5111C66.3146 21.3164 66.3155 20.9998 66.1208 20.804L63.3009 17.9671L66.1377 15.1472C66.3336 14.9525 66.3345 14.6359 66.1398 14.4401C65.9451 14.2442 65.6286 14.2433 65.4327 14.438L62.2413 17.6104ZM349.531 19.1751C349.727 18.9804 349.728 18.6639 349.533 18.468L346.361 15.2766C346.166 15.0807 345.85 15.0798 345.654 15.2744C345.458 15.4691 345.457 15.7857 345.652 15.9815L348.472 18.8184L345.635 21.6384C345.439 21.8331 345.438 22.1496 345.633 22.3455C345.827 22.5413 346.144 22.5423 346.34 22.3476L349.531 19.1751ZM62.5923 18.465L349.177 19.3205L349.18 18.3205L62.5952 17.465L62.5923 18.465Z" fill="#101010"/>
<path d="M52.1953 201.225L46.2422 199.531V198.711L48.5566 199.186L54.7734 201.008V201.822L52.1953 201.225ZM46.2422 202.977L52.0781 201.629L54.7734 201.225V202.033L46.2422 204.102V202.977ZM52.0723 196.52L46.2422 195.201V194.071L54.7734 196.133V196.942L52.0723 196.52ZM46.2422 198.588L52.1953 196.942L54.7734 196.344V197.158L48.5566 198.916L46.2422 199.397V198.588ZM54.1172 191.199L48.4336 189.436V188.276L55.752 190.819C55.9082 190.877 56.0762 190.955 56.2559 191.053C56.4395 191.147 56.6133 191.268 56.7773 191.416C56.9414 191.565 57.0742 191.744 57.1758 191.955C57.2812 192.162 57.334 192.41 57.334 192.699C57.334 192.785 57.3223 192.895 57.2988 193.028C57.2754 193.16 57.2559 193.254 57.2402 193.309L56.3613 193.315C56.3652 193.283 56.3691 193.235 56.373 193.168C56.3809 193.098 56.3848 193.049 56.3848 193.022C56.3848 192.776 56.3516 192.567 56.2852 192.395C56.2227 192.223 56.1152 192.078 55.9629 191.961C55.8145 191.84 55.6094 191.737 55.3477 191.651L54.1172 191.199ZM48.4336 192.494L53.3555 190.848L54.498 190.567L54.8965 191.346L48.4336 193.678V192.494ZM53.0918 183.606C52.9355 183.606 52.791 183.641 52.6582 183.711C52.5215 183.778 52.3984 183.916 52.2891 184.127C52.1758 184.334 52.0781 184.647 51.9961 185.065C51.9219 185.416 51.834 185.735 51.7324 186.02C51.6309 186.301 51.5078 186.541 51.3633 186.74C51.2188 186.936 51.0488 187.086 50.8535 187.192C50.6582 187.297 50.4297 187.35 50.168 187.35C49.918 187.35 49.6816 187.295 49.459 187.186C49.2363 187.072 49.0391 186.914 48.8672 186.711C48.6953 186.504 48.5605 186.256 48.4629 185.967C48.3652 185.678 48.3164 185.356 48.3164 185C48.3164 184.492 48.4062 184.059 48.5859 183.699C48.7656 183.34 49.0059 183.065 49.3066 182.873C49.6035 182.682 49.9336 182.586 50.2969 182.586V183.67C50.1211 183.67 49.9512 183.723 49.7871 183.828C49.6191 183.93 49.4805 184.08 49.3711 184.28C49.2617 184.475 49.207 184.715 49.207 185C49.207 185.301 49.2539 185.545 49.3477 185.733C49.4375 185.916 49.5527 186.051 49.6934 186.137C49.834 186.219 49.9824 186.26 50.1387 186.26C50.2559 186.26 50.3613 186.24 50.4551 186.201C50.5449 186.158 50.6289 186.084 50.707 185.979C50.7812 185.873 50.8516 185.725 50.918 185.533C50.9844 185.342 51.0508 185.098 51.1172 184.801C51.2344 184.281 51.375 183.854 51.5391 183.518C51.7031 183.182 51.9043 182.932 52.1426 182.768C52.3809 182.604 52.6699 182.522 53.0098 182.522C53.2871 182.522 53.541 182.58 53.7715 182.697C54.002 182.811 54.2012 182.977 54.3691 183.196C54.5332 183.41 54.6621 183.668 54.7559 183.969C54.8457 184.266 54.8906 184.6 54.8906 184.971C54.8906 185.53 54.791 186.002 54.5918 186.389C54.3926 186.776 54.1348 187.069 53.8184 187.268C53.502 187.467 53.168 187.567 52.8164 187.567V186.477C53.1133 186.461 53.3496 186.375 53.5254 186.219C53.6973 186.063 53.8203 185.871 53.8945 185.645C53.9648 185.418 54 185.194 54 184.971C54 184.674 53.9609 184.426 53.8828 184.227C53.8047 184.024 53.6973 183.869 53.5605 183.764C53.4238 183.658 53.2676 183.606 53.0918 183.606ZM51.6738 181.385H51.5391C51.082 181.385 50.6582 181.319 50.2676 181.186C49.873 181.053 49.5312 180.862 49.2422 180.612C48.9492 180.362 48.7227 180.059 48.5625 179.703C48.3984 179.348 48.3164 178.949 48.3164 178.508C48.3164 178.063 48.3984 177.662 48.5625 177.307C48.7227 176.947 48.9492 176.643 49.2422 176.393C49.5312 176.139 49.873 175.946 50.2676 175.813C50.6582 175.68 51.082 175.614 51.5391 175.614H51.6738C52.1309 175.614 52.5547 175.68 52.9453 175.813C53.3359 175.946 53.6777 176.139 53.9707 176.393C54.2598 176.643 54.4863 176.946 54.6504 177.301C54.8105 177.653 54.8906 178.051 54.8906 178.496C54.8906 178.942 54.8105 179.342 54.6504 179.697C54.4863 180.053 54.2598 180.358 53.9707 180.612C53.6777 180.862 53.3359 181.053 52.9453 181.186C52.5547 181.319 52.1309 181.385 51.6738 181.385ZM51.5391 180.301H51.6738C51.9902 180.301 52.2891 180.264 52.5703 180.19C52.8477 180.115 53.0938 180.004 53.3086 179.856C53.5234 179.703 53.6934 179.514 53.8184 179.287C53.9395 179.061 54 178.797 54 178.496C54 178.199 53.9395 177.94 53.8184 177.717C53.6934 177.49 53.5234 177.303 53.3086 177.155C53.0938 177.006 52.8477 176.895 52.5703 176.821C52.2891 176.742 51.9902 176.703 51.6738 176.703H51.5391C51.2266 176.703 50.9316 176.742 50.6543 176.821C50.373 176.895 50.125 177.008 49.9102 177.16C49.6914 177.309 49.5195 177.496 49.3945 177.723C49.2695 177.946 49.207 178.207 49.207 178.508C49.207 178.805 49.2695 179.067 49.3945 179.293C49.5195 179.516 49.6914 179.703 49.9102 179.856C50.125 180.004 50.373 180.115 50.6543 180.19C50.9316 180.264 51.2266 180.301 51.5391 180.301ZM45.7734 173.164H54.7734V174.254H45.7734V173.164ZM48.4336 169.291L51.3926 172.057L52.998 173.604L51.8438 173.692L50.5195 172.584L48.4336 170.615V169.291ZM54.7734 170.281L51.75 172.543L50.7832 171.981L54.7734 169.004V170.281ZM51.6738 168.459H51.5391C51.082 168.459 50.6582 168.393 50.2676 168.26C49.873 168.127 49.5312 167.936 49.2422 167.686C48.9492 167.436 48.7227 167.133 48.5625 166.778C48.3984 166.422 48.3164 166.024 48.3164 165.582C48.3164 165.137 48.3984 164.737 48.5625 164.381C48.7227 164.022 48.9492 163.717 49.2422 163.467C49.5312 163.213 49.873 163.02 50.2676 162.887C50.6582 162.754 51.082 162.688 51.5391 162.688H51.6738C52.1309 162.688 52.5547 162.754 52.9453 162.887C53.3359 163.02 53.6777 163.213 53.9707 163.467C54.2598 163.717 54.4863 164.02 54.6504 164.375C54.8105 164.727 54.8906 165.125 54.8906 165.571C54.8906 166.016 54.8105 166.416 54.6504 166.772C54.4863 167.127 54.2598 167.432 53.9707 167.686C53.6777 167.936 53.3359 168.127 52.9453 168.26C52.5547 168.393 52.1309 168.459 51.6738 168.459ZM51.5391 167.375H51.6738C51.9902 167.375 52.2891 167.338 52.5703 167.264C52.8477 167.19 53.0938 167.078 53.3086 166.93C53.5234 166.778 53.6934 166.588 53.8184 166.362C53.9395 166.135 54 165.871 54 165.571C54 165.274 53.9395 165.014 53.8184 164.791C53.6934 164.565 53.5234 164.377 53.3086 164.229C53.0938 164.08 52.8477 163.969 52.5703 163.895C52.2891 163.817 51.9902 163.778 51.6738 163.778H51.5391C51.2266 163.778 50.9316 163.817 50.6543 163.895C50.373 163.969 50.125 164.082 49.9102 164.235C49.6914 164.383 49.5195 164.571 49.3945 164.797C49.2695 165.02 49.207 165.281 49.207 165.582C49.207 165.879 49.2695 166.141 49.3945 166.367C49.5195 166.59 49.6914 166.778 49.9102 166.93C50.125 167.078 50.373 167.19 50.6543 167.264C50.9316 167.338 51.2266 167.375 51.5391 167.375ZM53.0918 157.637C52.9355 157.637 52.791 157.672 52.6582 157.742C52.5215 157.809 52.3984 157.947 52.2891 158.158C52.1758 158.365 52.0781 158.678 51.9961 159.096C51.9219 159.447 51.834 159.766 51.7324 160.051C51.6309 160.332 51.5078 160.572 51.3633 160.772C51.2188 160.967 51.0488 161.117 50.8535 161.223C50.6582 161.328 50.4297 161.381 50.168 161.381C49.918 161.381 49.6816 161.326 49.459 161.217C49.2363 161.104 49.0391 160.946 48.8672 160.742C48.6953 160.535 48.5605 160.287 48.4629 159.998C48.3652 159.709 48.3164 159.387 48.3164 159.031C48.3164 158.524 48.4062 158.09 48.5859 157.731C48.7656 157.371 49.0059 157.096 49.3066 156.905C49.6035 156.713 49.9336 156.617 50.2969 156.617V157.701C50.1211 157.701 49.9512 157.754 49.7871 157.86C49.6191 157.961 49.4805 158.112 49.3711 158.311C49.2617 158.506 49.207 158.746 49.207 159.031C49.207 159.332 49.2539 159.576 49.3477 159.764C49.4375 159.947 49.5527 160.082 49.6934 160.168C49.834 160.25 49.9824 160.291 50.1387 160.291C50.2559 160.291 50.3613 160.272 50.4551 160.233C50.5449 160.19 50.6289 160.115 50.707 160.01C50.7812 159.905 50.8516 159.756 50.918 159.565C50.9844 159.373 51.0508 159.129 51.1172 158.832C51.2344 158.313 51.375 157.885 51.5391 157.549C51.7031 157.213 51.9043 156.963 52.1426 156.799C52.3809 156.635 52.6699 156.553 53.0098 156.553C53.2871 156.553 53.541 156.612 53.7715 156.729C54.002 156.842 54.2012 157.008 54.3691 157.227C54.5332 157.442 54.6621 157.699 54.7559 158C54.8457 158.297 54.8906 158.631 54.8906 159.002C54.8906 159.561 54.791 160.033 54.5918 160.42C54.3926 160.807 54.1348 161.1 53.8184 161.299C53.502 161.498 53.168 161.598 52.8164 161.598V160.508C53.1133 160.492 53.3496 160.406 53.5254 160.25C53.6973 160.094 53.8203 159.903 53.8945 159.676C53.9648 159.449 54 159.225 54 159.002C54 158.705 53.9609 158.457 53.8828 158.258C53.8047 158.055 53.6973 157.901 53.5605 157.795C53.4238 157.69 53.2676 157.637 53.0918 157.637ZM47.4961 159.459L45.7734 158.322V157.016L47.4961 158.586V159.459ZM54 152.592C54 152.334 53.9473 152.096 53.8418 151.877C53.7363 151.658 53.5918 151.479 53.4082 151.338C53.2207 151.197 53.0078 151.117 52.7695 151.098V150.067C53.1445 150.086 53.4941 150.213 53.8184 150.447C54.1387 150.678 54.3984 150.981 54.5977 151.356C54.793 151.731 54.8906 152.143 54.8906 152.592C54.8906 153.069 54.8066 153.485 54.6387 153.84C54.4707 154.192 54.2402 154.485 53.9473 154.719C53.6543 154.949 53.3184 155.123 52.9395 155.24C52.5566 155.354 52.1523 155.41 51.7266 155.41H51.4805C51.0547 155.41 50.6523 155.354 50.2734 155.24C49.8906 155.123 49.5527 154.949 49.2598 154.719C48.9668 154.485 48.7363 154.192 48.5684 153.84C48.4004 153.485 48.3164 153.069 48.3164 152.592C48.3164 152.096 48.418 151.662 48.6211 151.291C48.8203 150.92 49.0938 150.629 49.4414 150.418C49.7852 150.203 50.1758 150.086 50.6133 150.067V151.098C50.3516 151.117 50.1152 151.192 49.9043 151.321C49.6934 151.446 49.5254 151.617 49.4004 151.836C49.2715 152.051 49.207 152.303 49.207 152.592C49.207 152.924 49.2734 153.203 49.4062 153.43C49.5352 153.653 49.7109 153.83 49.9336 153.963C50.1523 154.092 50.3965 154.186 50.666 154.244C50.9316 154.299 51.2031 154.326 51.4805 154.326H51.7266C52.0039 154.326 52.2773 154.299 52.5469 154.244C52.8164 154.19 53.0605 154.098 53.2793 153.969C53.498 153.836 53.6738 153.658 53.8066 153.436C53.9355 153.209 54 152.928 54 152.592ZM47.4961 153.43L45.7734 152.293V150.987L47.4961 152.557V153.43Z" fill="#101010"/>
<path d="M188.754 8.84375C188.754 8.64453 188.723 8.46875 188.66 8.31641C188.602 8.16016 188.496 8.01953 188.344 7.89453C188.195 7.76953 187.988 7.65039 187.723 7.53711C187.461 7.42383 187.129 7.30859 186.727 7.19141C186.305 7.06641 185.924 6.92773 185.584 6.77539C185.244 6.61914 184.953 6.44141 184.711 6.24219C184.469 6.04297 184.283 5.81445 184.154 5.55664C184.025 5.29883 183.961 5.00391 183.961 4.67188C183.961 4.33984 184.029 4.0332 184.166 3.75195C184.303 3.4707 184.498 3.22656 184.752 3.01953C185.01 2.80859 185.316 2.64453 185.672 2.52734C186.027 2.41016 186.424 2.35156 186.861 2.35156C187.502 2.35156 188.045 2.47461 188.49 2.7207C188.939 2.96289 189.281 3.28125 189.516 3.67578C189.75 4.06641 189.867 4.48438 189.867 4.92969H188.742C188.742 4.60938 188.674 4.32617 188.537 4.08008C188.4 3.83008 188.193 3.63477 187.916 3.49414C187.639 3.34961 187.287 3.27734 186.861 3.27734C186.459 3.27734 186.127 3.33789 185.865 3.45898C185.604 3.58008 185.408 3.74414 185.279 3.95117C185.154 4.1582 185.092 4.39453 185.092 4.66016C185.092 4.83984 185.129 5.00391 185.203 5.15234C185.281 5.29688 185.4 5.43164 185.561 5.55664C185.725 5.68164 185.932 5.79688 186.182 5.90234C186.436 6.00781 186.738 6.10938 187.09 6.20703C187.574 6.34375 187.992 6.49609 188.344 6.66406C188.695 6.83203 188.984 7.02148 189.211 7.23242C189.441 7.43945 189.611 7.67578 189.721 7.94141C189.834 8.20312 189.891 8.5 189.891 8.83203C189.891 9.17969 189.82 9.49414 189.68 9.77539C189.539 10.0566 189.338 10.2969 189.076 10.4961C188.814 10.6953 188.5 10.8496 188.133 10.959C187.77 11.0645 187.363 11.1172 186.914 11.1172C186.52 11.1172 186.131 11.0625 185.748 10.9531C185.369 10.8438 185.023 10.6797 184.711 10.4609C184.402 10.2422 184.154 9.97266 183.967 9.65234C183.783 9.32812 183.691 8.95312 183.691 8.52734H184.816C184.816 8.82031 184.873 9.07227 184.986 9.2832C185.1 9.49023 185.254 9.66211 185.449 9.79883C185.648 9.93555 185.873 10.0371 186.123 10.1035C186.377 10.166 186.641 10.1973 186.914 10.1973C187.309 10.1973 187.643 10.1426 187.916 10.0332C188.189 9.92383 188.396 9.76758 188.537 9.56445C188.682 9.36133 188.754 9.12109 188.754 8.84375ZM195.891 10.1094V11H191.279V10.1094H195.891ZM195.721 5.42773L191.525 11H190.863V10.2031L195.029 4.66016H195.721V5.42773ZM195.24 4.66016V5.55664H190.91V4.66016H195.24ZM199.658 11.1172C199.217 11.1172 198.816 11.043 198.457 10.8945C198.102 10.7422 197.795 10.5293 197.537 10.2559C197.283 9.98242 197.088 9.6582 196.951 9.2832C196.814 8.9082 196.746 8.49805 196.746 8.05273V7.80664C196.746 7.29102 196.822 6.83203 196.975 6.42969C197.127 6.02344 197.334 5.67969 197.596 5.39844C197.857 5.11719 198.154 4.9043 198.486 4.75977C198.818 4.61523 199.162 4.54297 199.518 4.54297C199.971 4.54297 200.361 4.62109 200.689 4.77734C201.021 4.93359 201.293 5.15234 201.504 5.43359C201.715 5.71094 201.871 6.03906 201.973 6.41797C202.074 6.79297 202.125 7.20312 202.125 7.64844V8.13477H197.391V7.25H201.041V7.16797C201.025 6.88672 200.967 6.61328 200.865 6.34766C200.768 6.08203 200.611 5.86328 200.396 5.69141C200.182 5.51953 199.889 5.43359 199.518 5.43359C199.271 5.43359 199.045 5.48633 198.838 5.5918C198.631 5.69336 198.453 5.8457 198.305 6.04883C198.156 6.25195 198.041 6.5 197.959 6.79297C197.877 7.08594 197.836 7.42383 197.836 7.80664V8.05273C197.836 8.35352 197.877 8.63672 197.959 8.90234C198.045 9.16406 198.168 9.39453 198.328 9.59375C198.492 9.79297 198.689 9.94922 198.92 10.0625C199.154 10.1758 199.42 10.2324 199.717 10.2324C200.1 10.2324 200.424 10.1543 200.689 9.99805C200.955 9.8418 201.188 9.63281 201.387 9.37109L202.043 9.89258C201.906 10.0996 201.732 10.2969 201.521 10.4844C201.311 10.6719 201.051 10.8242 200.742 10.9414C200.438 11.0586 200.076 11.1172 199.658 11.1172ZM204.475 5.65625V11H203.391V4.66016H204.445L204.475 5.65625ZM206.455 4.625L206.449 5.63281C206.359 5.61328 206.273 5.60156 206.191 5.59766C206.113 5.58984 206.023 5.58594 205.922 5.58594C205.672 5.58594 205.451 5.625 205.26 5.70312C205.068 5.78125 204.906 5.89062 204.773 6.03125C204.641 6.17188 204.535 6.33984 204.457 6.53516C204.383 6.72656 204.334 6.9375 204.311 7.16797L204.006 7.34375C204.006 6.96094 204.043 6.60156 204.117 6.26562C204.195 5.92969 204.314 5.63281 204.475 5.375C204.635 5.11328 204.838 4.91016 205.084 4.76562C205.334 4.61719 205.631 4.54297 205.975 4.54297C206.053 4.54297 206.143 4.55273 206.244 4.57227C206.346 4.58789 206.416 4.60547 206.455 4.625ZM207.053 7.90039V7.76562C207.053 7.30859 207.119 6.88477 207.252 6.49414C207.385 6.09961 207.576 5.75781 207.826 5.46875C208.076 5.17578 208.379 4.94922 208.734 4.78906C209.09 4.625 209.488 4.54297 209.93 4.54297C210.375 4.54297 210.775 4.625 211.131 4.78906C211.49 4.94922 211.795 5.17578 212.045 5.46875C212.299 5.75781 212.492 6.09961 212.625 6.49414C212.758 6.88477 212.824 7.30859 212.824 7.76562V7.90039C212.824 8.35742 212.758 8.78125 212.625 9.17188C212.492 9.5625 212.299 9.9043 212.045 10.1973C211.795 10.4863 211.492 10.7129 211.137 10.877C210.785 11.0371 210.387 11.1172 209.941 11.1172C209.496 11.1172 209.096 11.0371 208.74 10.877C208.385 10.7129 208.08 10.4863 207.826 10.1973C207.576 9.9043 207.385 9.5625 207.252 9.17188C207.119 8.78125 207.053 8.35742 207.053 7.90039ZM208.137 7.76562V7.90039C208.137 8.2168 208.174 8.51562 208.248 8.79688C208.322 9.07422 208.434 9.32031 208.582 9.53516C208.734 9.75 208.924 9.91992 209.15 10.0449C209.377 10.166 209.641 10.2266 209.941 10.2266C210.238 10.2266 210.498 10.166 210.721 10.0449C210.947 9.91992 211.135 9.75 211.283 9.53516C211.432 9.32031 211.543 9.07422 211.617 8.79688C211.695 8.51562 211.734 8.2168 211.734 7.90039V7.76562C211.734 7.45312 211.695 7.1582 211.617 6.88086C211.543 6.59961 211.43 6.35156 211.277 6.13672C211.129 5.91797 210.941 5.74609 210.715 5.62109C210.492 5.49609 210.23 5.43359 209.93 5.43359C209.633 5.43359 209.371 5.49609 209.145 5.62109C208.922 5.74609 208.734 5.91797 208.582 6.13672C208.434 6.35156 208.322 6.59961 208.248 6.88086C208.174 7.1582 208.137 7.45312 208.137 7.76562ZM215.273 2V11H214.184V2H215.273ZM219.146 4.66016L216.381 7.61914L214.834 9.22461L214.746 8.07031L215.854 6.74609L217.822 4.66016H219.146ZM218.156 11L215.895 7.97656L216.457 7.00977L219.434 11H218.156ZM219.979 7.90039V7.76562C219.979 7.30859 220.045 6.88477 220.178 6.49414C220.311 6.09961 220.502 5.75781 220.752 5.46875C221.002 5.17578 221.305 4.94922 221.66 4.78906C222.016 4.625 222.414 4.54297 222.855 4.54297C223.301 4.54297 223.701 4.625 224.057 4.78906C224.416 4.94922 224.721 5.17578 224.971 5.46875C225.225 5.75781 225.418 6.09961 225.551 6.49414C225.684 6.88477 225.75 7.30859 225.75 7.76562V7.90039C225.75 8.35742 225.684 8.78125 225.551 9.17188C225.418 9.5625 225.225 9.9043 224.971 10.1973C224.721 10.4863 224.418 10.7129 224.062 10.877C223.711 11.0371 223.312 11.1172 222.867 11.1172C222.422 11.1172 222.021 11.0371 221.666 10.877C221.311 10.7129 221.006 10.4863 220.752 10.1973C220.502 9.9043 220.311 9.5625 220.178 9.17188C220.045 8.78125 219.979 8.35742 219.979 7.90039ZM221.062 7.76562V7.90039C221.062 8.2168 221.1 8.51562 221.174 8.79688C221.248 9.07422 221.359 9.32031 221.508 9.53516C221.66 9.75 221.85 9.91992 222.076 10.0449C222.303 10.166 222.566 10.2266 222.867 10.2266C223.164 10.2266 223.424 10.166 223.646 10.0449C223.873 9.91992 224.061 9.75 224.209 9.53516C224.357 9.32031 224.469 9.07422 224.543 8.79688C224.621 8.51562 224.66 8.2168 224.66 7.90039V7.76562C224.66 7.45312 224.621 7.1582 224.543 6.88086C224.469 6.59961 224.355 6.35156 224.203 6.13672C224.055 5.91797 223.867 5.74609 223.641 5.62109C223.418 5.49609 223.156 5.43359 222.855 5.43359C222.559 5.43359 222.297 5.49609 222.07 5.62109C221.848 5.74609 221.66 5.91797 221.508 6.13672C221.359 6.35156 221.248 6.59961 221.174 6.88086C221.1 7.1582 221.062 7.45312 221.062 7.76562ZM230.801 9.31836C230.801 9.16211 230.766 9.01758 230.695 8.88477C230.629 8.74805 230.49 8.625 230.279 8.51562C230.072 8.40234 229.76 8.30469 229.342 8.22266C228.99 8.14844 228.672 8.06055 228.387 7.95898C228.105 7.85742 227.865 7.73438 227.666 7.58984C227.471 7.44531 227.32 7.27539 227.215 7.08008C227.109 6.88477 227.057 6.65625 227.057 6.39453C227.057 6.14453 227.111 5.9082 227.221 5.68555C227.334 5.46289 227.492 5.26562 227.695 5.09375C227.902 4.92188 228.15 4.78711 228.439 4.68945C228.729 4.5918 229.051 4.54297 229.406 4.54297C229.914 4.54297 230.348 4.63281 230.707 4.8125C231.066 4.99219 231.342 5.23242 231.533 5.5332C231.725 5.83008 231.82 6.16016 231.82 6.52344H230.736C230.736 6.34766 230.684 6.17773 230.578 6.01367C230.477 5.8457 230.326 5.70703 230.127 5.59766C229.932 5.48828 229.691 5.43359 229.406 5.43359C229.105 5.43359 228.861 5.48047 228.674 5.57422C228.49 5.66406 228.355 5.7793 228.27 5.91992C228.188 6.06055 228.146 6.20898 228.146 6.36523C228.146 6.48242 228.166 6.58789 228.205 6.68164C228.248 6.77148 228.322 6.85547 228.428 6.93359C228.533 7.00781 228.682 7.07812 228.873 7.14453C229.064 7.21094 229.309 7.27734 229.605 7.34375C230.125 7.46094 230.553 7.60156 230.889 7.76562C231.225 7.92969 231.475 8.13086 231.639 8.36914C231.803 8.60742 231.885 8.89648 231.885 9.23633C231.885 9.51367 231.826 9.76758 231.709 9.99805C231.596 10.2285 231.43 10.4277 231.211 10.5957C230.996 10.7598 230.738 10.8887 230.438 10.9824C230.141 11.0723 229.807 11.1172 229.436 11.1172C228.877 11.1172 228.404 11.0176 228.018 10.8184C227.631 10.6191 227.338 10.3613 227.139 10.0449C226.939 9.72852 226.84 9.39453 226.84 9.04297H227.93C227.945 9.33984 228.031 9.57617 228.188 9.75195C228.344 9.92383 228.535 10.0469 228.762 10.1211C228.988 10.1914 229.213 10.2266 229.436 10.2266C229.732 10.2266 229.98 10.1875 230.18 10.1094C230.383 10.0312 230.537 9.92383 230.643 9.78711C230.748 9.65039 230.801 9.49414 230.801 9.31836ZM228.979 3.72266L230.115 2H231.422L229.852 3.72266H228.979ZM235.846 10.2266C236.104 10.2266 236.342 10.1738 236.561 10.0684C236.779 9.96289 236.959 9.81836 237.1 9.63477C237.24 9.44727 237.32 9.23438 237.34 8.99609H238.371C238.352 9.37109 238.225 9.7207 237.99 10.0449C237.76 10.3652 237.457 10.625 237.082 10.8242C236.707 11.0195 236.295 11.1172 235.846 11.1172C235.369 11.1172 234.953 11.0332 234.598 10.8652C234.246 10.6973 233.953 10.4668 233.719 10.1738C233.488 9.88086 233.314 9.54492 233.197 9.16602C233.084 8.7832 233.027 8.37891 233.027 7.95312V7.70703C233.027 7.28125 233.084 6.87891 233.197 6.5C233.314 6.11719 233.488 5.7793 233.719 5.48633C233.953 5.19336 234.246 4.96289 234.598 4.79492C234.953 4.62695 235.369 4.54297 235.846 4.54297C236.342 4.54297 236.775 4.64453 237.146 4.84766C237.518 5.04688 237.809 5.32031 238.02 5.66797C238.234 6.01172 238.352 6.40234 238.371 6.83984H237.34C237.32 6.57812 237.246 6.3418 237.117 6.13086C236.992 5.91992 236.82 5.75195 236.602 5.62695C236.387 5.49805 236.135 5.43359 235.846 5.43359C235.514 5.43359 235.234 5.5 235.008 5.63281C234.785 5.76172 234.607 5.9375 234.475 6.16016C234.346 6.37891 234.252 6.62305 234.193 6.89258C234.139 7.1582 234.111 7.42969 234.111 7.70703V7.95312C234.111 8.23047 234.139 8.50391 234.193 8.77344C234.248 9.04297 234.34 9.28711 234.469 9.50586C234.602 9.72461 234.779 9.90039 235.002 10.0332C235.229 10.1621 235.51 10.2266 235.846 10.2266ZM235.008 3.72266L236.145 2H237.451L235.881 3.72266H235.008Z" fill="#101010"/>
<path d="M1 367L30.9417 337.058H382.971L412.913 367" stroke="#101010"/>
<rect x="154.629" y="79.0378" width="108.034" height="171.204" stroke="#101010"/>
<rect x="148.404" y="71.6823" width="120.149" height="185.05" stroke="#101010"/>
<rect x="138.887" y="56.106" width="140.052" height="216.203" stroke="#101010"/>
<rect x="131.531" y="273.309" width="153.897" height="6.78814" stroke="#101010"/>
<path d="M208.879 78.5378L208.879 250.31" stroke="#101010"/>
<path d="M75.3066 322.469H76.0332L79.1855 329.98L82.3438 322.469H83.0645L79.4609 331H78.9102L75.3066 322.469ZM75.084 322.469H75.7227L75.7988 327.273V331H75.084V322.469ZM82.6602 322.469H83.2988V331H82.5781V327.273L82.6602 322.469ZM86.082 324.66V331H85.3848V324.66H86.082ZM85.2617 322.826C85.2617 322.693 85.3027 322.582 85.3848 322.492C85.4707 322.398 85.5879 322.352 85.7363 322.352C85.8848 322.352 86.002 322.398 86.0879 322.492C86.1777 322.582 86.2227 322.693 86.2227 322.826C86.2227 322.955 86.1777 323.066 86.0879 323.16C86.002 323.25 85.8848 323.295 85.7363 323.295C85.5879 323.295 85.4707 323.25 85.3848 323.16C85.3027 323.066 85.2617 322.955 85.2617 322.826ZM88.6953 326.014V331H87.998V324.66H88.666L88.6953 326.014ZM88.5371 327.438L88.2266 327.262C88.25 326.887 88.3262 326.535 88.4551 326.207C88.584 325.879 88.7578 325.59 88.9766 325.34C89.1992 325.09 89.459 324.895 89.7559 324.754C90.0566 324.613 90.3887 324.543 90.752 324.543C91.0684 324.543 91.3516 324.586 91.6016 324.672C91.8516 324.758 92.0645 324.895 92.2402 325.082C92.416 325.27 92.5488 325.51 92.6387 325.803C92.7324 326.096 92.7793 326.453 92.7793 326.875V331H92.0762V326.869C92.0762 326.432 92.0156 326.09 91.8945 325.844C91.7734 325.594 91.6016 325.416 91.3789 325.311C91.1562 325.205 90.8926 325.152 90.5879 325.152C90.252 325.152 89.957 325.227 89.7031 325.375C89.4531 325.52 89.2422 325.709 89.0703 325.943C88.9023 326.174 88.7734 326.422 88.6836 326.688C88.5938 326.949 88.5449 327.199 88.5371 327.438ZM98.6562 329.535V324.66H99.3594V331H98.6855L98.6562 329.535ZM98.7852 328.363L99.1484 328.352C99.1484 328.75 99.1016 329.117 99.0078 329.453C98.9141 329.789 98.7676 330.082 98.5684 330.332C98.3691 330.582 98.1113 330.775 97.7949 330.912C97.4785 331.049 97.0977 331.117 96.6523 331.117C96.3438 331.117 96.0605 331.074 95.8027 330.988C95.5488 330.898 95.3301 330.758 95.1465 330.566C94.9629 330.375 94.8203 330.127 94.7188 329.822C94.6211 329.518 94.5723 329.148 94.5723 328.715V324.66H95.2695V328.727C95.2695 329.066 95.3066 329.35 95.3809 329.576C95.459 329.803 95.5645 329.984 95.6973 330.121C95.834 330.258 95.9902 330.355 96.166 330.414C96.3418 330.473 96.5312 330.502 96.7344 330.502C97.25 330.502 97.6562 330.402 97.9531 330.203C98.2539 330.004 98.4668 329.742 98.5918 329.418C98.7207 329.09 98.7852 328.738 98.7852 328.363ZM104.99 329.383C104.99 329.211 104.947 329.041 104.861 328.873C104.775 328.705 104.609 328.551 104.363 328.41C104.121 328.27 103.764 328.15 103.291 328.053C102.939 327.975 102.625 327.887 102.348 327.789C102.074 327.691 101.844 327.574 101.656 327.438C101.469 327.301 101.326 327.137 101.229 326.945C101.131 326.754 101.082 326.527 101.082 326.266C101.082 326.031 101.133 325.811 101.234 325.604C101.34 325.393 101.488 325.209 101.68 325.053C101.875 324.893 102.109 324.768 102.383 324.678C102.66 324.588 102.971 324.543 103.314 324.543C103.803 324.543 104.221 324.627 104.568 324.795C104.92 324.959 105.188 325.184 105.371 325.469C105.559 325.754 105.652 326.076 105.652 326.436H104.955C104.955 326.217 104.891 326.01 104.762 325.814C104.637 325.619 104.451 325.459 104.205 325.334C103.963 325.209 103.666 325.146 103.314 325.146C102.951 325.146 102.656 325.201 102.43 325.311C102.203 325.42 102.037 325.559 101.932 325.727C101.83 325.895 101.779 326.068 101.779 326.248C101.779 326.389 101.801 326.518 101.844 326.635C101.891 326.748 101.973 326.854 102.09 326.951C102.211 327.049 102.383 327.141 102.605 327.227C102.828 327.312 103.117 327.396 103.473 327.479C103.984 327.592 104.402 327.73 104.727 327.895C105.055 328.055 105.297 328.254 105.453 328.492C105.609 328.727 105.688 329.012 105.688 329.348C105.688 329.609 105.633 329.85 105.523 330.068C105.414 330.283 105.256 330.469 105.049 330.625C104.846 330.781 104.6 330.902 104.311 330.988C104.025 331.074 103.705 331.117 103.35 331.117C102.814 331.117 102.361 331.029 101.99 330.854C101.623 330.674 101.344 330.439 101.152 330.15C100.965 329.857 100.871 329.547 100.871 329.219H101.568C101.592 329.547 101.695 329.807 101.879 329.998C102.062 330.186 102.287 330.318 102.553 330.396C102.822 330.475 103.088 330.514 103.35 330.514C103.709 330.514 104.01 330.461 104.252 330.355C104.494 330.25 104.678 330.111 104.803 329.939C104.928 329.768 104.99 329.582 104.99 329.383ZM115.432 330.396V331H110.094V330.455L112.889 327.285C113.236 326.891 113.514 326.545 113.721 326.248C113.928 325.947 114.076 325.674 114.166 325.428C114.26 325.178 114.307 324.936 114.307 324.701C114.307 324.357 114.238 324.055 114.102 323.793C113.969 323.531 113.77 323.326 113.504 323.178C113.238 323.029 112.91 322.955 112.52 322.955C112.129 322.955 111.789 323.039 111.5 323.207C111.211 323.375 110.988 323.609 110.832 323.91C110.68 324.207 110.604 324.545 110.604 324.924H109.906C109.906 324.455 110.01 324.025 110.217 323.635C110.428 323.244 110.729 322.934 111.119 322.703C111.51 322.469 111.977 322.352 112.52 322.352C113.035 322.352 113.479 322.443 113.85 322.627C114.221 322.807 114.506 323.066 114.705 323.406C114.908 323.746 115.01 324.156 115.01 324.637C115.01 324.895 114.963 325.154 114.869 325.416C114.779 325.678 114.654 325.939 114.494 326.201C114.338 326.459 114.158 326.715 113.955 326.969C113.756 327.223 113.547 327.473 113.328 327.719L110.949 330.396H115.432ZM119.041 326.934V327.537H116.234V326.934H119.041ZM121.221 326.781L120.67 326.623L121.086 322.469H125.352V323.125H121.684L121.385 325.996C121.533 325.891 121.748 325.787 122.029 325.686C122.314 325.58 122.635 325.527 122.99 325.527C123.369 325.527 123.713 325.592 124.021 325.721C124.334 325.846 124.602 326.029 124.824 326.271C125.047 326.51 125.219 326.799 125.34 327.139C125.461 327.475 125.521 327.855 125.521 328.281C125.521 328.691 125.471 329.068 125.369 329.412C125.268 329.756 125.113 330.057 124.906 330.314C124.699 330.568 124.436 330.766 124.115 330.906C123.795 331.047 123.414 331.117 122.973 331.117C122.633 331.117 122.312 331.07 122.012 330.977C121.715 330.879 121.449 330.732 121.215 330.537C120.98 330.342 120.789 330.096 120.641 329.799C120.496 329.502 120.406 329.154 120.371 328.756H121.045C121.092 329.139 121.195 329.461 121.355 329.723C121.516 329.984 121.73 330.182 122 330.314C122.273 330.447 122.598 330.514 122.973 330.514C123.277 330.514 123.543 330.465 123.77 330.367C124 330.27 124.191 330.127 124.344 329.939C124.5 329.748 124.617 329.516 124.695 329.242C124.777 328.965 124.818 328.648 124.818 328.293C124.818 327.988 124.775 327.709 124.689 327.455C124.604 327.197 124.477 326.973 124.309 326.781C124.145 326.586 123.941 326.436 123.699 326.33C123.457 326.225 123.18 326.172 122.867 326.172C122.461 326.172 122.137 326.227 121.895 326.336C121.656 326.445 121.432 326.594 121.221 326.781ZM132.23 330.514C132.527 330.514 132.805 330.459 133.062 330.35C133.324 330.236 133.539 330.07 133.707 329.852C133.879 329.629 133.977 329.357 134 329.037H134.668C134.648 329.439 134.525 329.799 134.299 330.115C134.076 330.428 133.783 330.674 133.42 330.854C133.061 331.029 132.664 331.117 132.23 331.117C131.789 331.117 131.398 331.037 131.059 330.877C130.723 330.717 130.441 330.494 130.215 330.209C129.988 329.92 129.816 329.584 129.699 329.201C129.586 328.814 129.529 328.398 129.529 327.953V327.707C129.529 327.262 129.586 326.848 129.699 326.465C129.816 326.078 129.988 325.742 130.215 325.457C130.441 325.168 130.723 324.943 131.059 324.783C131.395 324.623 131.783 324.543 132.225 324.543C132.678 324.543 133.084 324.635 133.443 324.818C133.807 325.002 134.096 325.262 134.311 325.598C134.529 325.934 134.648 326.332 134.668 326.793H134C133.98 326.453 133.891 326.16 133.73 325.914C133.57 325.668 133.359 325.479 133.098 325.346C132.836 325.213 132.545 325.146 132.225 325.146C131.865 325.146 131.559 325.217 131.305 325.357C131.051 325.494 130.844 325.684 130.684 325.926C130.527 326.164 130.412 326.438 130.338 326.746C130.264 327.051 130.227 327.371 130.227 327.707V327.953C130.227 328.293 130.262 328.617 130.332 328.926C130.406 329.23 130.521 329.502 130.678 329.74C130.838 329.979 131.045 330.168 131.299 330.309C131.557 330.445 131.867 330.514 132.23 330.514ZM136.742 325.973V331H136.039V324.66H136.713L136.742 325.973ZM136.613 327.438L136.273 327.262C136.297 326.887 136.367 326.535 136.484 326.207C136.605 325.879 136.773 325.59 136.988 325.34C137.203 325.09 137.461 324.895 137.762 324.754C138.062 324.613 138.404 324.543 138.787 324.543C139.096 324.543 139.375 324.586 139.625 324.672C139.879 324.754 140.094 324.885 140.27 325.064C140.449 325.24 140.588 325.471 140.686 325.756C140.783 326.041 140.832 326.383 140.832 326.781V331H140.135V326.805C140.135 326.383 140.068 326.053 139.936 325.814C139.807 325.576 139.625 325.406 139.391 325.305C139.16 325.203 138.893 325.152 138.588 325.152C138.229 325.152 137.924 325.227 137.674 325.375C137.428 325.52 137.227 325.709 137.07 325.943C136.918 326.174 136.805 326.422 136.73 326.688C136.656 326.949 136.617 327.199 136.613 327.438ZM140.826 326.887L140.357 326.898C140.377 326.59 140.447 326.295 140.568 326.014C140.693 325.732 140.863 325.482 141.078 325.264C141.293 325.041 141.549 324.865 141.846 324.736C142.146 324.607 142.484 324.543 142.859 324.543C143.188 324.543 143.48 324.588 143.738 324.678C143.996 324.764 144.213 324.902 144.389 325.094C144.568 325.281 144.705 325.521 144.799 325.814C144.893 326.107 144.939 326.459 144.939 326.869V331H144.236V326.863C144.236 326.414 144.17 326.066 144.037 325.82C143.908 325.57 143.729 325.396 143.498 325.299C143.268 325.201 142.998 325.152 142.689 325.152C142.385 325.156 142.117 325.213 141.887 325.322C141.656 325.428 141.463 325.568 141.307 325.744C141.154 325.916 141.037 326.102 140.955 326.301C140.877 326.5 140.834 326.695 140.826 326.887ZM149.557 327.637V327.549C149.557 326.787 149.637 326.074 149.797 325.41C149.957 324.746 150.166 324.148 150.424 323.617C150.686 323.086 150.971 322.635 151.279 322.264C151.592 321.889 151.898 321.611 152.199 321.432L152.369 321.912C152.111 322.096 151.855 322.361 151.602 322.709C151.352 323.057 151.125 323.475 150.922 323.963C150.719 324.451 150.557 324.996 150.436 325.598C150.314 326.199 150.254 326.844 150.254 327.531V327.648C150.254 328.336 150.314 328.98 150.436 329.582C150.557 330.184 150.719 330.729 150.922 331.217C151.125 331.709 151.352 332.131 151.602 332.482C151.855 332.838 152.111 333.111 152.369 333.303L152.199 333.754C151.898 333.574 151.592 333.301 151.279 332.934C150.971 332.57 150.686 332.125 150.424 331.598C150.166 331.074 149.957 330.479 149.797 329.811C149.637 329.143 149.557 328.418 149.557 327.637ZM157.279 329.383C157.279 329.211 157.236 329.041 157.15 328.873C157.064 328.705 156.898 328.551 156.652 328.41C156.41 328.27 156.053 328.15 155.58 328.053C155.229 327.975 154.914 327.887 154.637 327.789C154.363 327.691 154.133 327.574 153.945 327.438C153.758 327.301 153.615 327.137 153.518 326.945C153.42 326.754 153.371 326.527 153.371 326.266C153.371 326.031 153.422 325.811 153.523 325.604C153.629 325.393 153.777 325.209 153.969 325.053C154.164 324.893 154.398 324.768 154.672 324.678C154.949 324.588 155.26 324.543 155.604 324.543C156.092 324.543 156.51 324.627 156.857 324.795C157.209 324.959 157.477 325.184 157.66 325.469C157.848 325.754 157.941 326.076 157.941 326.436H157.244C157.244 326.217 157.18 326.01 157.051 325.814C156.926 325.619 156.74 325.459 156.494 325.334C156.252 325.209 155.955 325.146 155.604 325.146C155.24 325.146 154.945 325.201 154.719 325.311C154.492 325.42 154.326 325.559 154.221 325.727C154.119 325.895 154.068 326.068 154.068 326.248C154.068 326.389 154.09 326.518 154.133 326.635C154.18 326.748 154.262 326.854 154.379 326.951C154.5 327.049 154.672 327.141 154.895 327.227C155.117 327.312 155.406 327.396 155.762 327.479C156.273 327.592 156.691 327.73 157.016 327.895C157.344 328.055 157.586 328.254 157.742 328.492C157.898 328.727 157.977 329.012 157.977 329.348C157.977 329.609 157.922 329.85 157.812 330.068C157.703 330.283 157.545 330.469 157.338 330.625C157.135 330.781 156.889 330.902 156.6 330.988C156.314 331.074 155.994 331.117 155.639 331.117C155.104 331.117 154.65 331.029 154.279 330.854C153.912 330.674 153.633 330.439 153.441 330.15C153.254 329.857 153.16 329.547 153.16 329.219H153.857C153.881 329.547 153.984 329.807 154.168 329.998C154.352 330.186 154.576 330.318 154.842 330.396C155.111 330.475 155.377 330.514 155.639 330.514C155.998 330.514 156.299 330.461 156.541 330.355C156.783 330.25 156.967 330.111 157.092 329.939C157.217 329.768 157.279 329.582 157.279 329.383ZM161.961 324.66V325.234H158.785V324.66H161.961ZM159.951 323.031H160.648V329.459C160.648 329.752 160.688 329.973 160.766 330.121C160.844 330.27 160.945 330.369 161.07 330.42C161.195 330.471 161.33 330.496 161.475 330.496C161.58 330.496 161.682 330.49 161.779 330.479C161.877 330.463 161.965 330.447 162.043 330.432L162.072 331.023C161.986 331.051 161.875 331.072 161.738 331.088C161.602 331.107 161.465 331.117 161.328 331.117C161.059 331.117 160.82 331.068 160.613 330.971C160.406 330.869 160.244 330.697 160.127 330.455C160.01 330.209 159.951 329.875 159.951 329.453V323.031ZM167.287 329.863V326.594C167.287 326.293 167.225 326.033 167.1 325.814C166.975 325.596 166.791 325.428 166.549 325.311C166.307 325.193 166.008 325.135 165.652 325.135C165.324 325.135 165.031 325.193 164.773 325.311C164.52 325.424 164.318 325.578 164.17 325.773C164.025 325.965 163.953 326.178 163.953 326.412L163.25 326.406C163.25 326.168 163.309 325.938 163.426 325.715C163.543 325.492 163.709 325.293 163.924 325.117C164.139 324.941 164.395 324.803 164.691 324.701C164.992 324.596 165.322 324.543 165.682 324.543C166.135 324.543 166.533 324.619 166.877 324.771C167.225 324.924 167.496 325.152 167.691 325.457C167.887 325.762 167.984 326.145 167.984 326.605V329.67C167.984 329.889 168 330.115 168.031 330.35C168.066 330.584 168.115 330.777 168.178 330.93V331H167.434C167.387 330.859 167.35 330.684 167.322 330.473C167.299 330.258 167.287 330.055 167.287 329.863ZM167.451 327.309L167.463 327.848H166.086C165.727 327.848 165.404 327.881 165.119 327.947C164.838 328.01 164.6 328.104 164.404 328.229C164.209 328.35 164.059 328.496 163.953 328.668C163.852 328.84 163.801 329.035 163.801 329.254C163.801 329.48 163.857 329.688 163.971 329.875C164.088 330.062 164.252 330.213 164.463 330.326C164.678 330.436 164.932 330.49 165.225 330.49C165.615 330.49 165.959 330.418 166.256 330.273C166.557 330.129 166.805 329.939 167 329.705C167.195 329.471 167.326 329.215 167.393 328.938L167.697 329.342C167.646 329.537 167.553 329.738 167.416 329.945C167.283 330.148 167.109 330.34 166.895 330.52C166.68 330.695 166.426 330.84 166.133 330.953C165.844 331.062 165.516 331.117 165.148 331.117C164.734 331.117 164.373 331.039 164.064 330.883C163.76 330.727 163.521 330.514 163.35 330.244C163.182 329.971 163.098 329.662 163.098 329.318C163.098 329.006 163.164 328.727 163.297 328.48C163.43 328.23 163.621 328.02 163.871 327.848C164.125 327.672 164.43 327.539 164.785 327.449C165.145 327.355 165.547 327.309 165.992 327.309H167.451ZM170.562 326.014V331H169.865V324.66H170.533L170.562 326.014ZM170.404 327.438L170.094 327.262C170.117 326.887 170.193 326.535 170.322 326.207C170.451 325.879 170.625 325.59 170.844 325.34C171.066 325.09 171.326 324.895 171.623 324.754C171.924 324.613 172.256 324.543 172.619 324.543C172.936 324.543 173.219 324.586 173.469 324.672C173.719 324.758 173.932 324.895 174.107 325.082C174.283 325.27 174.416 325.51 174.506 325.803C174.6 326.096 174.646 326.453 174.646 326.875V331H173.943V326.869C173.943 326.432 173.883 326.09 173.762 325.844C173.641 325.594 173.469 325.416 173.246 325.311C173.023 325.205 172.76 325.152 172.455 325.152C172.119 325.152 171.824 325.227 171.57 325.375C171.32 325.52 171.109 325.709 170.938 325.943C170.77 326.174 170.641 326.422 170.551 326.688C170.461 326.949 170.412 327.199 170.404 327.438ZM180.582 329.77V322H181.285V331H180.629L180.582 329.77ZM176.182 327.895V327.771C176.182 327.279 176.238 326.836 176.352 326.441C176.465 326.043 176.627 325.703 176.838 325.422C177.053 325.137 177.311 324.92 177.611 324.771C177.912 324.619 178.252 324.543 178.631 324.543C179.002 324.543 179.33 324.604 179.615 324.725C179.9 324.846 180.145 325.02 180.348 325.246C180.555 325.473 180.721 325.742 180.846 326.055C180.975 326.367 181.068 326.715 181.127 327.098V328.662C181.08 329.021 180.994 329.352 180.869 329.652C180.744 329.949 180.578 330.209 180.371 330.432C180.164 330.65 179.914 330.82 179.621 330.941C179.332 331.059 178.998 331.117 178.619 331.117C178.244 331.117 177.906 331.039 177.605 330.883C177.305 330.727 177.049 330.506 176.838 330.221C176.627 329.932 176.465 329.59 176.352 329.195C176.238 328.801 176.182 328.367 176.182 327.895ZM176.885 327.771V327.895C176.885 328.266 176.922 328.609 176.996 328.926C177.07 329.242 177.184 329.518 177.336 329.752C177.488 329.986 177.682 330.17 177.916 330.303C178.15 330.436 178.428 330.502 178.748 330.502C179.15 330.502 179.488 330.426 179.762 330.273C180.035 330.117 180.254 329.912 180.418 329.658C180.582 329.4 180.701 329.119 180.775 328.814V326.992C180.729 326.785 180.66 326.574 180.57 326.359C180.48 326.145 180.357 325.947 180.201 325.768C180.049 325.584 179.854 325.438 179.615 325.328C179.381 325.215 179.096 325.158 178.76 325.158C178.436 325.158 178.156 325.225 177.922 325.357C177.688 325.49 177.492 325.676 177.336 325.914C177.184 326.148 177.07 326.424 176.996 326.74C176.922 327.057 176.885 327.4 176.885 327.771ZM186.986 329.863V326.594C186.986 326.293 186.924 326.033 186.799 325.814C186.674 325.596 186.49 325.428 186.248 325.311C186.006 325.193 185.707 325.135 185.352 325.135C185.023 325.135 184.73 325.193 184.473 325.311C184.219 325.424 184.018 325.578 183.869 325.773C183.725 325.965 183.652 326.178 183.652 326.412L182.949 326.406C182.949 326.168 183.008 325.938 183.125 325.715C183.242 325.492 183.408 325.293 183.623 325.117C183.838 324.941 184.094 324.803 184.391 324.701C184.691 324.596 185.021 324.543 185.381 324.543C185.834 324.543 186.232 324.619 186.576 324.771C186.924 324.924 187.195 325.152 187.391 325.457C187.586 325.762 187.684 326.145 187.684 326.605V329.67C187.684 329.889 187.699 330.115 187.73 330.35C187.766 330.584 187.814 330.777 187.877 330.93V331H187.133C187.086 330.859 187.049 330.684 187.021 330.473C186.998 330.258 186.986 330.055 186.986 329.863ZM187.15 327.309L187.162 327.848H185.785C185.426 327.848 185.104 327.881 184.818 327.947C184.537 328.01 184.299 328.104 184.104 328.229C183.908 328.35 183.758 328.496 183.652 328.668C183.551 328.84 183.5 329.035 183.5 329.254C183.5 329.48 183.557 329.688 183.67 329.875C183.787 330.062 183.951 330.213 184.162 330.326C184.377 330.436 184.631 330.49 184.924 330.49C185.314 330.49 185.658 330.418 185.955 330.273C186.256 330.129 186.504 329.939 186.699 329.705C186.895 329.471 187.025 329.215 187.092 328.938L187.396 329.342C187.346 329.537 187.252 329.738 187.115 329.945C186.982 330.148 186.809 330.34 186.594 330.52C186.379 330.695 186.125 330.84 185.832 330.953C185.543 331.062 185.215 331.117 184.848 331.117C184.434 331.117 184.072 331.039 183.764 330.883C183.459 330.727 183.221 330.514 183.049 330.244C182.881 329.971 182.797 329.662 182.797 329.318C182.797 329.006 182.863 328.727 182.996 328.48C183.129 328.23 183.32 328.02 183.57 327.848C183.824 327.672 184.129 327.539 184.484 327.449C184.844 327.355 185.246 327.309 185.691 327.309H187.15ZM190.262 325.709V331H189.564V324.66H190.244L190.262 325.709ZM192.506 324.613L192.488 325.258C192.41 325.246 192.334 325.236 192.26 325.229C192.186 325.221 192.105 325.217 192.02 325.217C191.715 325.217 191.447 325.273 191.217 325.387C190.99 325.496 190.799 325.65 190.643 325.85C190.486 326.045 190.367 326.275 190.285 326.541C190.203 326.803 190.156 327.084 190.145 327.385L189.887 327.484C189.887 327.07 189.93 326.686 190.016 326.33C190.102 325.975 190.232 325.664 190.408 325.398C190.588 325.129 190.812 324.92 191.082 324.771C191.355 324.619 191.676 324.543 192.043 324.543C192.133 324.543 192.221 324.551 192.307 324.566C192.396 324.578 192.463 324.594 192.506 324.613ZM196.297 324.66V325.234H193.121V324.66H196.297ZM194.287 323.031H194.984V329.459C194.984 329.752 195.023 329.973 195.102 330.121C195.18 330.27 195.281 330.369 195.406 330.42C195.531 330.471 195.666 330.496 195.811 330.496C195.916 330.496 196.018 330.49 196.115 330.479C196.213 330.463 196.301 330.447 196.379 330.432L196.408 331.023C196.322 331.051 196.211 331.072 196.074 331.088C195.938 331.107 195.801 331.117 195.664 331.117C195.395 331.117 195.156 331.068 194.949 330.971C194.742 330.869 194.58 330.697 194.463 330.455C194.346 330.209 194.287 329.875 194.287 329.453V323.031ZM199.859 327.549V327.637C199.859 328.418 199.779 329.143 199.619 329.811C199.459 330.479 199.248 331.074 198.986 331.598C198.725 332.125 198.439 332.57 198.131 332.934C197.822 333.301 197.516 333.574 197.211 333.754L197.041 333.303C197.303 333.119 197.559 332.852 197.809 332.5C198.059 332.148 198.285 331.725 198.488 331.229C198.695 330.736 198.859 330.189 198.98 329.588C199.102 328.982 199.162 328.336 199.162 327.648V327.531C199.162 326.844 199.1 326.199 198.975 325.598C198.85 324.992 198.684 324.443 198.477 323.951C198.27 323.459 198.041 323.037 197.791 322.686C197.541 322.334 197.291 322.068 197.041 321.889L197.211 321.432C197.516 321.611 197.822 321.889 198.131 322.264C198.439 322.635 198.725 323.086 198.986 323.617C199.248 324.148 199.459 324.746 199.619 325.41C199.779 326.074 199.859 326.787 199.859 327.549Z" fill="#101010"/>
</svg>
