<svg width="401" height="360" viewBox="0 0 401 360" fill="none" xmlns="http://www.w3.org/2000/svg">
<path d="M115.354 58.6464C115.158 58.4512 114.842 58.4512 114.646 58.6464L111.464 61.8284C111.269 62.0237 111.269 62.3403 111.464 62.5355C111.66 62.7308 111.976 62.7308 112.172 62.5355L115 59.7071L117.828 62.5355C118.024 62.7308 118.34 62.7308 118.536 62.5355C118.731 62.3403 118.731 62.0237 118.536 61.8284L115.354 58.6464ZM114.646 277.354C114.842 277.549 115.158 277.549 115.354 277.354L118.536 274.172C118.731 273.976 118.731 273.66 118.536 273.464C118.34 273.269 118.024 273.269 117.828 273.464L115 276.293L112.172 273.464C111.976 273.269 111.66 273.269 111.464 273.464C111.269 273.66 111.269 273.976 111.464 274.172L114.646 277.354ZM114.5 59L114.5 277L115.5 277L115.5 59L114.5 59Z" fill="#101010"/>
<path d="M105.422 206.53L99.4688 204.837V204.016L101.783 204.491L108 206.313V207.128L105.422 206.53ZM99.4688 208.282L105.305 206.934L108 206.53V207.339L99.4688 209.407V208.282ZM105.299 201.825L99.4688 200.506V199.376L108 201.438V202.247L105.299 201.825ZM99.4688 203.893L105.422 202.247L108 201.649V202.464L101.783 204.221L99.4688 204.702V203.893ZM107.344 196.505L101.66 194.741V193.581L108.979 196.124C109.135 196.182 109.303 196.26 109.482 196.358C109.666 196.452 109.84 196.573 110.004 196.721C110.168 196.87 110.301 197.049 110.402 197.26C110.508 197.467 110.561 197.715 110.561 198.005C110.561 198.09 110.549 198.2 110.525 198.333C110.502 198.465 110.482 198.559 110.467 198.614L109.588 198.62C109.592 198.589 109.596 198.54 109.6 198.473C109.607 198.403 109.611 198.354 109.611 198.327C109.611 198.081 109.578 197.872 109.512 197.7C109.449 197.528 109.342 197.383 109.189 197.266C109.041 197.145 108.836 197.042 108.574 196.956L107.344 196.505ZM101.66 197.799L106.582 196.153L107.725 195.872L108.123 196.651L101.66 198.983V197.799ZM106.318 188.911C106.162 188.911 106.018 188.946 105.885 189.016C105.748 189.083 105.625 189.221 105.516 189.432C105.402 189.639 105.305 189.952 105.223 190.37C105.148 190.721 105.061 191.04 104.959 191.325C104.857 191.606 104.734 191.846 104.59 192.046C104.445 192.241 104.275 192.391 104.08 192.497C103.885 192.602 103.656 192.655 103.395 192.655C103.145 192.655 102.908 192.6 102.686 192.491C102.463 192.378 102.266 192.219 102.094 192.016C101.922 191.809 101.787 191.561 101.689 191.272C101.592 190.983 101.543 190.661 101.543 190.305C101.543 189.797 101.633 189.364 101.812 189.005C101.992 188.645 102.232 188.37 102.533 188.178C102.83 187.987 103.16 187.891 103.523 187.891V188.975C103.348 188.975 103.178 189.028 103.014 189.133C102.846 189.235 102.707 189.385 102.598 189.585C102.488 189.78 102.434 190.02 102.434 190.305C102.434 190.606 102.48 190.85 102.574 191.038C102.664 191.221 102.779 191.356 102.92 191.442C103.061 191.524 103.209 191.565 103.365 191.565C103.482 191.565 103.588 191.546 103.682 191.506C103.771 191.464 103.855 191.389 103.934 191.284C104.008 191.178 104.078 191.03 104.145 190.839C104.211 190.647 104.277 190.403 104.344 190.106C104.461 189.587 104.602 189.159 104.766 188.823C104.93 188.487 105.131 188.237 105.369 188.073C105.607 187.909 105.896 187.827 106.236 187.827C106.514 187.827 106.768 187.885 106.998 188.003C107.229 188.116 107.428 188.282 107.596 188.501C107.76 188.715 107.889 188.973 107.982 189.274C108.072 189.571 108.117 189.905 108.117 190.276C108.117 190.835 108.018 191.307 107.818 191.694C107.619 192.081 107.361 192.374 107.045 192.573C106.729 192.772 106.395 192.872 106.043 192.872V191.782C106.34 191.766 106.576 191.68 106.752 191.524C106.924 191.368 107.047 191.176 107.121 190.95C107.191 190.723 107.227 190.499 107.227 190.276C107.227 189.979 107.188 189.731 107.109 189.532C107.031 189.329 106.924 189.174 106.787 189.069C106.65 188.964 106.494 188.911 106.318 188.911ZM104.9 186.69H104.766C104.309 186.69 103.885 186.624 103.494 186.491C103.1 186.358 102.758 186.167 102.469 185.917C102.176 185.667 101.949 185.364 101.789 185.008C101.625 184.653 101.543 184.255 101.543 183.813C101.543 183.368 101.625 182.967 101.789 182.612C101.949 182.253 102.176 181.948 102.469 181.698C102.758 181.444 103.1 181.251 103.494 181.118C103.885 180.985 104.309 180.919 104.766 180.919H104.9C105.357 180.919 105.781 180.985 106.172 181.118C106.562 181.251 106.904 181.444 107.197 181.698C107.486 181.948 107.713 182.251 107.877 182.606C108.037 182.958 108.117 183.356 108.117 183.801C108.117 184.247 108.037 184.647 107.877 185.003C107.713 185.358 107.486 185.663 107.197 185.917C106.904 186.167 106.562 186.358 106.172 186.491C105.781 186.624 105.357 186.69 104.9 186.69ZM104.766 185.606H104.9C105.217 185.606 105.516 185.569 105.797 185.495C106.074 185.421 106.32 185.309 106.535 185.161C106.75 185.008 106.92 184.819 107.045 184.592C107.166 184.366 107.227 184.102 107.227 183.801C107.227 183.505 107.166 183.245 107.045 183.022C106.92 182.796 106.75 182.608 106.535 182.46C106.32 182.311 106.074 182.2 105.797 182.126C105.516 182.047 105.217 182.008 104.9 182.008H104.766C104.453 182.008 104.158 182.047 103.881 182.126C103.6 182.2 103.352 182.313 103.137 182.465C102.918 182.614 102.746 182.801 102.621 183.028C102.496 183.251 102.434 183.512 102.434 183.813C102.434 184.11 102.496 184.372 102.621 184.598C102.746 184.821 102.918 185.008 103.137 185.161C103.352 185.309 103.6 185.421 103.881 185.495C104.158 185.569 104.453 185.606 104.766 185.606ZM99 178.469H108V179.559H99V178.469ZM101.66 174.596L104.619 177.362L106.225 178.909L105.07 178.997L103.746 177.889L101.66 175.921V174.596ZM108 175.587L104.977 177.848L104.01 177.286L108 174.309V175.587ZM104.9 173.764H104.766C104.309 173.764 103.885 173.698 103.494 173.565C103.1 173.432 102.758 173.241 102.469 172.991C102.176 172.741 101.949 172.438 101.789 172.083C101.625 171.727 101.543 171.329 101.543 170.887C101.543 170.442 101.625 170.042 101.789 169.686C101.949 169.327 102.176 169.022 102.469 168.772C102.758 168.518 103.1 168.325 103.494 168.192C103.885 168.059 104.309 167.993 104.766 167.993H104.9C105.357 167.993 105.781 168.059 106.172 168.192C106.562 168.325 106.904 168.518 107.197 168.772C107.486 169.022 107.713 169.325 107.877 169.68C108.037 170.032 108.117 170.43 108.117 170.876C108.117 171.321 108.037 171.721 107.877 172.077C107.713 172.432 107.486 172.737 107.197 172.991C106.904 173.241 106.562 173.432 106.172 173.565C105.781 173.698 105.357 173.764 104.9 173.764ZM104.766 172.68H104.9C105.217 172.68 105.516 172.643 105.797 172.569C106.074 172.495 106.32 172.383 106.535 172.235C106.75 172.083 106.92 171.893 107.045 171.667C107.166 171.44 107.227 171.176 107.227 170.876C107.227 170.579 107.166 170.319 107.045 170.096C106.92 169.87 106.75 169.682 106.535 169.534C106.32 169.385 106.074 169.274 105.797 169.2C105.516 169.122 105.217 169.083 104.9 169.083H104.766C104.453 169.083 104.158 169.122 103.881 169.2C103.6 169.274 103.352 169.387 103.137 169.54C102.918 169.688 102.746 169.876 102.621 170.102C102.496 170.325 102.434 170.587 102.434 170.887C102.434 171.184 102.496 171.446 102.621 171.672C102.746 171.895 102.918 172.083 103.137 172.235C103.352 172.383 103.6 172.495 103.881 172.569C104.158 172.643 104.453 172.68 104.766 172.68ZM106.318 162.942C106.162 162.942 106.018 162.977 105.885 163.047C105.748 163.114 105.625 163.253 105.516 163.464C105.402 163.671 105.305 163.983 105.223 164.401C105.148 164.753 105.061 165.071 104.959 165.356C104.857 165.637 104.734 165.878 104.59 166.077C104.445 166.272 104.275 166.422 104.08 166.528C103.885 166.633 103.656 166.686 103.395 166.686C103.145 166.686 102.908 166.631 102.686 166.522C102.463 166.409 102.266 166.251 102.094 166.047C101.922 165.84 101.787 165.592 101.689 165.303C101.592 165.014 101.543 164.692 101.543 164.337C101.543 163.829 101.633 163.395 101.812 163.036C101.992 162.676 102.232 162.401 102.533 162.21C102.83 162.018 103.16 161.922 103.523 161.922V163.006C103.348 163.006 103.178 163.059 103.014 163.165C102.846 163.266 102.707 163.417 102.598 163.616C102.488 163.811 102.434 164.051 102.434 164.337C102.434 164.637 102.48 164.881 102.574 165.069C102.664 165.253 102.779 165.387 102.92 165.473C103.061 165.555 103.209 165.596 103.365 165.596C103.482 165.596 103.588 165.577 103.682 165.538C103.771 165.495 103.855 165.421 103.934 165.315C104.008 165.21 104.078 165.061 104.145 164.87C104.211 164.678 104.277 164.434 104.344 164.137C104.461 163.618 104.602 163.19 104.766 162.854C104.93 162.518 105.131 162.268 105.369 162.104C105.607 161.94 105.896 161.858 106.236 161.858C106.514 161.858 106.768 161.917 106.998 162.034C107.229 162.147 107.428 162.313 107.596 162.532C107.76 162.747 107.889 163.005 107.982 163.305C108.072 163.602 108.117 163.936 108.117 164.307C108.117 164.866 108.018 165.339 107.818 165.725C107.619 166.112 107.361 166.405 107.045 166.604C106.729 166.803 106.395 166.903 106.043 166.903V165.813C106.34 165.797 106.576 165.712 106.752 165.555C106.924 165.399 107.047 165.208 107.121 164.981C107.191 164.755 107.227 164.53 107.227 164.307C107.227 164.01 107.188 163.762 107.109 163.563C107.031 163.36 106.924 163.206 106.787 163.1C106.65 162.995 106.494 162.942 106.318 162.942ZM100.723 164.764L99 163.628V162.321L100.723 163.891V164.764ZM107.227 157.897C107.227 157.639 107.174 157.401 107.068 157.182C106.963 156.964 106.818 156.784 106.635 156.643C106.447 156.503 106.234 156.422 105.996 156.403V155.372C106.371 155.391 106.721 155.518 107.045 155.753C107.365 155.983 107.625 156.286 107.824 156.661C108.02 157.036 108.117 157.448 108.117 157.897C108.117 158.374 108.033 158.79 107.865 159.145C107.697 159.497 107.467 159.79 107.174 160.024C106.881 160.255 106.545 160.428 106.166 160.546C105.783 160.659 105.379 160.715 104.953 160.715H104.707C104.281 160.715 103.879 160.659 103.5 160.546C103.117 160.428 102.779 160.255 102.486 160.024C102.193 159.79 101.963 159.497 101.795 159.145C101.627 158.79 101.543 158.374 101.543 157.897C101.543 157.401 101.645 156.967 101.848 156.596C102.047 156.225 102.32 155.934 102.668 155.723C103.012 155.508 103.402 155.391 103.84 155.372V156.403C103.578 156.422 103.342 156.497 103.131 156.626C102.92 156.751 102.752 156.922 102.627 157.141C102.498 157.356 102.434 157.608 102.434 157.897C102.434 158.229 102.5 158.508 102.633 158.735C102.762 158.958 102.938 159.135 103.16 159.268C103.379 159.397 103.623 159.491 103.893 159.549C104.158 159.604 104.43 159.631 104.707 159.631H104.953C105.23 159.631 105.504 159.604 105.773 159.549C106.043 159.495 106.287 159.403 106.506 159.274C106.725 159.141 106.9 158.964 107.033 158.741C107.162 158.514 107.227 158.233 107.227 157.897ZM100.723 158.735L99 157.598V156.292L100.723 157.862V158.735Z" fill="#101010"/>
<path d="M131.646 48.6464C131.451 48.8417 131.451 49.1583 131.646 49.3536L134.828 52.5355C135.024 52.7308 135.34 52.7308 135.536 52.5355C135.731 52.3403 135.731 52.0237 135.536 51.8284L132.707 49L135.536 46.1716C135.731 45.9763 135.731 45.6597 135.536 45.4645C135.34 45.2692 135.024 45.2692 134.828 45.4645L131.646 48.6464ZM269.354 49.3535C269.549 49.1583 269.549 48.8417 269.354 48.6464L266.172 45.4645C265.976 45.2692 265.66 45.2692 265.464 45.4645C265.269 45.6597 265.269 45.9763 265.464 46.1716L268.293 49L265.464 51.8284C265.269 52.0237 265.269 52.3403 265.464 52.5355C265.66 52.7308 265.976 52.7308 266.172 52.5355L269.354 49.3535ZM132 49.5L269 49.5L269 48.5L132 48.5L132 49.5Z" fill="#101010"/>
<path d="M181.338 40.8438C181.338 40.6445 181.307 40.4688 181.244 40.3164C181.186 40.1602 181.08 40.0195 180.928 39.8945C180.779 39.7695 180.572 39.6504 180.307 39.5371C180.045 39.4238 179.713 39.3086 179.311 39.1914C178.889 39.0664 178.508 38.9277 178.168 38.7754C177.828 38.6191 177.537 38.4414 177.295 38.2422C177.053 38.043 176.867 37.8145 176.738 37.5566C176.609 37.2988 176.545 37.0039 176.545 36.6719C176.545 36.3398 176.613 36.0332 176.75 35.752C176.887 35.4707 177.082 35.2266 177.336 35.0195C177.594 34.8086 177.9 34.6445 178.256 34.5273C178.611 34.4102 179.008 34.3516 179.445 34.3516C180.086 34.3516 180.629 34.4746 181.074 34.7207C181.523 34.9629 181.865 35.2812 182.1 35.6758C182.334 36.0664 182.451 36.4844 182.451 36.9297H181.326C181.326 36.6094 181.258 36.3262 181.121 36.0801C180.984 35.8301 180.777 35.6348 180.5 35.4941C180.223 35.3496 179.871 35.2773 179.445 35.2773C179.043 35.2773 178.711 35.3379 178.449 35.459C178.188 35.5801 177.992 35.7441 177.863 35.9512C177.738 36.1582 177.676 36.3945 177.676 36.6602C177.676 36.8398 177.713 37.0039 177.787 37.1523C177.865 37.2969 177.984 37.4316 178.145 37.5566C178.309 37.6816 178.516 37.7969 178.766 37.9023C179.02 38.0078 179.322 38.1094 179.674 38.207C180.158 38.3438 180.576 38.4961 180.928 38.6641C181.279 38.832 181.568 39.0215 181.795 39.2324C182.025 39.4395 182.195 39.6758 182.305 39.9414C182.418 40.2031 182.475 40.5 182.475 40.832C182.475 41.1797 182.404 41.4941 182.264 41.7754C182.123 42.0566 181.922 42.2969 181.66 42.4961C181.398 42.6953 181.084 42.8496 180.717 42.959C180.354 43.0645 179.947 43.1172 179.498 43.1172C179.104 43.1172 178.715 43.0625 178.332 42.9531C177.953 42.8438 177.607 42.6797 177.295 42.4609C176.986 42.2422 176.738 41.9727 176.551 41.6523C176.367 41.3281 176.275 40.9531 176.275 40.5273H177.4C177.4 40.8203 177.457 41.0723 177.57 41.2832C177.684 41.4902 177.838 41.6621 178.033 41.7988C178.232 41.9355 178.457 42.0371 178.707 42.1035C178.961 42.166 179.225 42.1973 179.498 42.1973C179.893 42.1973 180.227 42.1426 180.5 42.0332C180.773 41.9238 180.98 41.7676 181.121 41.5645C181.266 41.3613 181.338 41.1211 181.338 40.8438ZM188.475 42.1094V43H183.863V42.1094H188.475ZM188.305 37.4277L184.109 43H183.447V42.2031L187.613 36.6602H188.305V37.4277ZM187.824 36.6602V37.5566H183.494V36.6602H187.824ZM192.242 43.1172C191.801 43.1172 191.4 43.043 191.041 42.8945C190.686 42.7422 190.379 42.5293 190.121 42.2559C189.867 41.9824 189.672 41.6582 189.535 41.2832C189.398 40.9082 189.33 40.498 189.33 40.0527V39.8066C189.33 39.291 189.406 38.832 189.559 38.4297C189.711 38.0234 189.918 37.6797 190.18 37.3984C190.441 37.1172 190.738 36.9043 191.07 36.7598C191.402 36.6152 191.746 36.543 192.102 36.543C192.555 36.543 192.945 36.6211 193.273 36.7773C193.605 36.9336 193.877 37.1523 194.088 37.4336C194.299 37.7109 194.455 38.0391 194.557 38.418C194.658 38.793 194.709 39.2031 194.709 39.6484V40.1348H189.975V39.25H193.625V39.168C193.609 38.8867 193.551 38.6133 193.449 38.3477C193.352 38.082 193.195 37.8633 192.98 37.6914C192.766 37.5195 192.473 37.4336 192.102 37.4336C191.855 37.4336 191.629 37.4863 191.422 37.5918C191.215 37.6934 191.037 37.8457 190.889 38.0488C190.74 38.252 190.625 38.5 190.543 38.793C190.461 39.0859 190.42 39.4238 190.42 39.8066V40.0527C190.42 40.3535 190.461 40.6367 190.543 40.9023C190.629 41.1641 190.752 41.3945 190.912 41.5938C191.076 41.793 191.273 41.9492 191.504 42.0625C191.738 42.1758 192.004 42.2324 192.301 42.2324C192.684 42.2324 193.008 42.1543 193.273 41.998C193.539 41.8418 193.771 41.6328 193.971 41.3711L194.627 41.8926C194.49 42.0996 194.316 42.2969 194.105 42.4844C193.895 42.6719 193.635 42.8242 193.326 42.9414C193.021 43.0586 192.66 43.1172 192.242 43.1172ZM197.059 37.6562V43H195.975V36.6602H197.029L197.059 37.6562ZM199.039 36.625L199.033 37.6328C198.943 37.6133 198.857 37.6016 198.775 37.5977C198.697 37.5898 198.607 37.5859 198.506 37.5859C198.256 37.5859 198.035 37.625 197.844 37.7031C197.652 37.7812 197.49 37.8906 197.357 38.0312C197.225 38.1719 197.119 38.3398 197.041 38.5352C196.967 38.7266 196.918 38.9375 196.895 39.168L196.59 39.3438C196.59 38.9609 196.627 38.6016 196.701 38.2656C196.779 37.9297 196.898 37.6328 197.059 37.375C197.219 37.1133 197.422 36.9102 197.668 36.7656C197.918 36.6172 198.215 36.543 198.559 36.543C198.637 36.543 198.727 36.5527 198.828 36.5723C198.93 36.5879 199 36.6055 199.039 36.625ZM199.637 39.9004V39.7656C199.637 39.3086 199.703 38.8848 199.836 38.4941C199.969 38.0996 200.16 37.7578 200.41 37.4688C200.66 37.1758 200.963 36.9492 201.318 36.7891C201.674 36.625 202.072 36.543 202.514 36.543C202.959 36.543 203.359 36.625 203.715 36.7891C204.074 36.9492 204.379 37.1758 204.629 37.4688C204.883 37.7578 205.076 38.0996 205.209 38.4941C205.342 38.8848 205.408 39.3086 205.408 39.7656V39.9004C205.408 40.3574 205.342 40.7812 205.209 41.1719C205.076 41.5625 204.883 41.9043 204.629 42.1973C204.379 42.4863 204.076 42.7129 203.721 42.877C203.369 43.0371 202.971 43.1172 202.525 43.1172C202.08 43.1172 201.68 43.0371 201.324 42.877C200.969 42.7129 200.664 42.4863 200.41 42.1973C200.16 41.9043 199.969 41.5625 199.836 41.1719C199.703 40.7812 199.637 40.3574 199.637 39.9004ZM200.721 39.7656V39.9004C200.721 40.2168 200.758 40.5156 200.832 40.7969C200.906 41.0742 201.018 41.3203 201.166 41.5352C201.318 41.75 201.508 41.9199 201.734 42.0449C201.961 42.166 202.225 42.2266 202.525 42.2266C202.822 42.2266 203.082 42.166 203.305 42.0449C203.531 41.9199 203.719 41.75 203.867 41.5352C204.016 41.3203 204.127 41.0742 204.201 40.7969C204.279 40.5156 204.318 40.2168 204.318 39.9004V39.7656C204.318 39.4531 204.279 39.1582 204.201 38.8809C204.127 38.5996 204.014 38.3516 203.861 38.1367C203.713 37.918 203.525 37.7461 203.299 37.6211C203.076 37.4961 202.814 37.4336 202.514 37.4336C202.217 37.4336 201.955 37.4961 201.729 37.6211C201.506 37.7461 201.318 37.918 201.166 38.1367C201.018 38.3516 200.906 38.5996 200.832 38.8809C200.758 39.1582 200.721 39.4531 200.721 39.7656ZM207.857 34V43H206.768V34H207.857ZM211.73 36.6602L208.965 39.6191L207.418 41.2246L207.33 40.0703L208.438 38.7461L210.406 36.6602H211.73ZM210.74 43L208.479 39.9766L209.041 39.0098L212.018 43H210.74ZM212.562 39.9004V39.7656C212.562 39.3086 212.629 38.8848 212.762 38.4941C212.895 38.0996 213.086 37.7578 213.336 37.4688C213.586 37.1758 213.889 36.9492 214.244 36.7891C214.6 36.625 214.998 36.543 215.439 36.543C215.885 36.543 216.285 36.625 216.641 36.7891C217 36.9492 217.305 37.1758 217.555 37.4688C217.809 37.7578 218.002 38.0996 218.135 38.4941C218.268 38.8848 218.334 39.3086 218.334 39.7656V39.9004C218.334 40.3574 218.268 40.7812 218.135 41.1719C218.002 41.5625 217.809 41.9043 217.555 42.1973C217.305 42.4863 217.002 42.7129 216.646 42.877C216.295 43.0371 215.896 43.1172 215.451 43.1172C215.006 43.1172 214.605 43.0371 214.25 42.877C213.895 42.7129 213.59 42.4863 213.336 42.1973C213.086 41.9043 212.895 41.5625 212.762 41.1719C212.629 40.7812 212.562 40.3574 212.562 39.9004ZM213.646 39.7656V39.9004C213.646 40.2168 213.684 40.5156 213.758 40.7969C213.832 41.0742 213.943 41.3203 214.092 41.5352C214.244 41.75 214.434 41.9199 214.66 42.0449C214.887 42.166 215.15 42.2266 215.451 42.2266C215.748 42.2266 216.008 42.166 216.23 42.0449C216.457 41.9199 216.645 41.75 216.793 41.5352C216.941 41.3203 217.053 41.0742 217.127 40.7969C217.205 40.5156 217.244 40.2168 217.244 39.9004V39.7656C217.244 39.4531 217.205 39.1582 217.127 38.8809C217.053 38.5996 216.939 38.3516 216.787 38.1367C216.639 37.918 216.451 37.7461 216.225 37.6211C216.002 37.4961 215.74 37.4336 215.439 37.4336C215.143 37.4336 214.881 37.4961 214.654 37.6211C214.432 37.7461 214.244 37.918 214.092 38.1367C213.943 38.3516 213.832 38.5996 213.758 38.8809C213.684 39.1582 213.646 39.4531 213.646 39.7656ZM223.385 41.3184C223.385 41.1621 223.35 41.0176 223.279 40.8848C223.213 40.748 223.074 40.625 222.863 40.5156C222.656 40.4023 222.344 40.3047 221.926 40.2227C221.574 40.1484 221.256 40.0605 220.971 39.959C220.689 39.8574 220.449 39.7344 220.25 39.5898C220.055 39.4453 219.904 39.2754 219.799 39.0801C219.693 38.8848 219.641 38.6562 219.641 38.3945C219.641 38.1445 219.695 37.9082 219.805 37.6855C219.918 37.4629 220.076 37.2656 220.279 37.0938C220.486 36.9219 220.734 36.7871 221.023 36.6895C221.312 36.5918 221.635 36.543 221.99 36.543C222.498 36.543 222.932 36.6328 223.291 36.8125C223.65 36.9922 223.926 37.2324 224.117 37.5332C224.309 37.8301 224.404 38.1602 224.404 38.5234H223.32C223.32 38.3477 223.268 38.1777 223.162 38.0137C223.061 37.8457 222.91 37.707 222.711 37.5977C222.516 37.4883 222.275 37.4336 221.99 37.4336C221.689 37.4336 221.445 37.4805 221.258 37.5742C221.074 37.6641 220.939 37.7793 220.854 37.9199C220.771 38.0605 220.73 38.209 220.73 38.3652C220.73 38.4824 220.75 38.5879 220.789 38.6816C220.832 38.7715 220.906 38.8555 221.012 38.9336C221.117 39.0078 221.266 39.0781 221.457 39.1445C221.648 39.2109 221.893 39.2773 222.189 39.3438C222.709 39.4609 223.137 39.6016 223.473 39.7656C223.809 39.9297 224.059 40.1309 224.223 40.3691C224.387 40.6074 224.469 40.8965 224.469 41.2363C224.469 41.5137 224.41 41.7676 224.293 41.998C224.18 42.2285 224.014 42.4277 223.795 42.5957C223.58 42.7598 223.322 42.8887 223.021 42.9824C222.725 43.0723 222.391 43.1172 222.02 43.1172C221.461 43.1172 220.988 43.0176 220.602 42.8184C220.215 42.6191 219.922 42.3613 219.723 42.0449C219.523 41.7285 219.424 41.3945 219.424 41.043H220.514C220.529 41.3398 220.615 41.5762 220.771 41.752C220.928 41.9238 221.119 42.0469 221.346 42.1211C221.572 42.1914 221.797 42.2266 222.02 42.2266C222.316 42.2266 222.564 42.1875 222.764 42.1094C222.967 42.0312 223.121 41.9238 223.227 41.7871C223.332 41.6504 223.385 41.4941 223.385 41.3184ZM221.562 35.7227L222.699 34H224.006L222.436 35.7227H221.562ZM228.43 42.2266C228.688 42.2266 228.926 42.1738 229.145 42.0684C229.363 41.9629 229.543 41.8184 229.684 41.6348C229.824 41.4473 229.904 41.2344 229.924 40.9961H230.955C230.936 41.3711 230.809 41.7207 230.574 42.0449C230.344 42.3652 230.041 42.625 229.666 42.8242C229.291 43.0195 228.879 43.1172 228.43 43.1172C227.953 43.1172 227.537 43.0332 227.182 42.8652C226.83 42.6973 226.537 42.4668 226.303 42.1738C226.072 41.8809 225.898 41.5449 225.781 41.166C225.668 40.7832 225.611 40.3789 225.611 39.9531V39.707C225.611 39.2812 225.668 38.8789 225.781 38.5C225.898 38.1172 226.072 37.7793 226.303 37.4863C226.537 37.1934 226.83 36.9629 227.182 36.7949C227.537 36.627 227.953 36.543 228.43 36.543C228.926 36.543 229.359 36.6445 229.73 36.8477C230.102 37.0469 230.393 37.3203 230.604 37.668C230.818 38.0117 230.936 38.4023 230.955 38.8398H229.924C229.904 38.5781 229.83 38.3418 229.701 38.1309C229.576 37.9199 229.404 37.752 229.186 37.627C228.971 37.498 228.719 37.4336 228.43 37.4336C228.098 37.4336 227.818 37.5 227.592 37.6328C227.369 37.7617 227.191 37.9375 227.059 38.1602C226.93 38.3789 226.836 38.623 226.777 38.8926C226.723 39.1582 226.695 39.4297 226.695 39.707V39.9531C226.695 40.2305 226.723 40.5039 226.777 40.7734C226.832 41.043 226.924 41.2871 227.053 41.5059C227.186 41.7246 227.363 41.9004 227.586 42.0332C227.812 42.1621 228.094 42.2266 228.43 42.2266ZM227.592 35.7227L228.729 34H230.035L228.465 35.7227H227.592Z" fill="#101010"/>
<path d="M1 359L29.9931 330.007H370.87L399.863 359" stroke="#101010"/>
<path d="M1 1.00003L29.9931 29.9932H370.87L399.863 1.00003" stroke="#101010"/>
<rect x="147.777" y="82.1765" width="104.58" height="165.749" stroke="#101010"/>
<rect x="141.75" y="75.0541" width="116.311" height="179.156" stroke="#101010"/>
<rect x="132.535" y="59.9713" width="135.583" height="209.321" stroke="#101010"/>
<rect x="125.412" y="270.293" width="148.99" height="6.5414" stroke="#101010"/>
<path d="M200.295 81.6766L200.295 248.006" stroke="#101010"/>
</svg>
