<svg width="402" height="370" viewBox="0 0 402 370" fill="none" xmlns="http://www.w3.org/2000/svg">
<path d="M115.354 34.6464C115.158 34.4512 114.842 34.4512 114.646 34.6464L111.464 37.8284C111.269 38.0237 111.269 38.3403 111.464 38.5355C111.66 38.7308 111.976 38.7308 112.172 38.5355L115 35.7071L117.828 38.5355C118.024 38.7308 118.34 38.7308 118.536 38.5355C118.731 38.3403 118.731 38.0237 118.536 37.8284L115.354 34.6464ZM114.646 293.354C114.842 293.549 115.158 293.549 115.354 293.354L118.536 290.172C118.731 289.976 118.731 289.66 118.536 289.464C118.34 289.269 118.024 289.269 117.828 289.464L115 292.293L112.172 289.464C111.976 289.269 111.66 289.269 111.464 289.464C111.269 289.66 111.269 289.976 111.464 290.172L114.646 293.354ZM114.5 35L114.5 293L115.5 293L115.5 35L114.5 35Z" fill="#101010"/>
<path d="M105.422 209.53L99.4688 207.836V207.016L101.783 207.491L108 209.313V210.128L105.422 209.53ZM99.4688 211.282L105.305 209.934L108 209.53V210.338L99.4688 212.407V211.282ZM105.299 204.825L99.4688 203.506V202.376L108 204.438V205.247L105.299 204.825ZM99.4688 206.893L105.422 205.247L108 204.649V205.463L101.783 207.221L99.4688 207.702V206.893ZM107.344 199.504L101.66 197.741V196.581L108.979 199.124C109.135 199.182 109.303 199.26 109.482 199.358C109.666 199.452 109.84 199.573 110.004 199.721C110.168 199.87 110.301 200.049 110.402 200.26C110.508 200.467 110.561 200.715 110.561 201.004C110.561 201.09 110.549 201.2 110.525 201.333C110.502 201.465 110.482 201.559 110.467 201.614L109.588 201.62C109.592 201.588 109.596 201.54 109.6 201.473C109.607 201.403 109.611 201.354 109.611 201.327C109.611 201.081 109.578 200.872 109.512 200.7C109.449 200.528 109.342 200.383 109.189 200.266C109.041 200.145 108.836 200.042 108.574 199.956L107.344 199.504ZM101.66 200.799L106.582 199.153L107.725 198.872L108.123 199.651L101.66 201.983V200.799ZM106.318 191.911C106.162 191.911 106.018 191.946 105.885 192.016C105.748 192.083 105.625 192.221 105.516 192.432C105.402 192.639 105.305 192.952 105.223 193.37C105.148 193.721 105.061 194.04 104.959 194.325C104.857 194.606 104.734 194.846 104.59 195.045C104.445 195.241 104.275 195.391 104.08 195.497C103.885 195.602 103.656 195.655 103.395 195.655C103.145 195.655 102.908 195.6 102.686 195.491C102.463 195.378 102.266 195.219 102.094 195.016C101.922 194.809 101.787 194.561 101.689 194.272C101.592 193.983 101.543 193.661 101.543 193.305C101.543 192.797 101.633 192.364 101.812 192.004C101.992 191.645 102.232 191.37 102.533 191.178C102.83 190.987 103.16 190.891 103.523 190.891V191.975C103.348 191.975 103.178 192.028 103.014 192.133C102.846 192.235 102.707 192.385 102.598 192.585C102.488 192.78 102.434 193.02 102.434 193.305C102.434 193.606 102.48 193.85 102.574 194.038C102.664 194.221 102.779 194.356 102.92 194.442C103.061 194.524 103.209 194.565 103.365 194.565C103.482 194.565 103.588 194.545 103.682 194.506C103.771 194.463 103.855 194.389 103.934 194.284C104.008 194.178 104.078 194.03 104.145 193.838C104.211 193.647 104.277 193.403 104.344 193.106C104.461 192.586 104.602 192.159 104.766 191.823C104.93 191.487 105.131 191.237 105.369 191.073C105.607 190.909 105.896 190.827 106.236 190.827C106.514 190.827 106.768 190.885 106.998 191.003C107.229 191.116 107.428 191.282 107.596 191.501C107.76 191.715 107.889 191.973 107.982 192.274C108.072 192.571 108.117 192.905 108.117 193.276C108.117 193.835 108.018 194.307 107.818 194.694C107.619 195.081 107.361 195.374 107.045 195.573C106.729 195.772 106.395 195.872 106.043 195.872V194.782C106.34 194.766 106.576 194.68 106.752 194.524C106.924 194.368 107.047 194.176 107.121 193.95C107.191 193.723 107.227 193.499 107.227 193.276C107.227 192.979 107.188 192.731 107.109 192.532C107.031 192.329 106.924 192.174 106.787 192.069C106.65 191.963 106.494 191.911 106.318 191.911ZM104.9 189.69H104.766C104.309 189.69 103.885 189.624 103.494 189.491C103.1 189.358 102.758 189.167 102.469 188.917C102.176 188.667 101.949 188.364 101.789 188.008C101.625 187.653 101.543 187.254 101.543 186.813C101.543 186.368 101.625 185.967 101.789 185.612C101.949 185.253 102.176 184.948 102.469 184.698C102.758 184.444 103.1 184.251 103.494 184.118C103.885 183.985 104.309 183.919 104.766 183.919H104.9C105.357 183.919 105.781 183.985 106.172 184.118C106.562 184.251 106.904 184.444 107.197 184.698C107.486 184.948 107.713 185.251 107.877 185.606C108.037 185.958 108.117 186.356 108.117 186.801C108.117 187.247 108.037 187.647 107.877 188.003C107.713 188.358 107.486 188.663 107.197 188.917C106.904 189.167 106.562 189.358 106.172 189.491C105.781 189.624 105.357 189.69 104.9 189.69ZM104.766 188.606H104.9C105.217 188.606 105.516 188.569 105.797 188.495C106.074 188.42 106.32 188.309 106.535 188.161C106.75 188.008 106.92 187.819 107.045 187.592C107.166 187.366 107.227 187.102 107.227 186.801C107.227 186.504 107.166 186.245 107.045 186.022C106.92 185.795 106.75 185.608 106.535 185.46C106.32 185.311 106.074 185.2 105.797 185.126C105.516 185.047 105.217 185.008 104.9 185.008H104.766C104.453 185.008 104.158 185.047 103.881 185.126C103.6 185.2 103.352 185.313 103.137 185.465C102.918 185.614 102.746 185.801 102.621 186.028C102.496 186.251 102.434 186.512 102.434 186.813C102.434 187.11 102.496 187.372 102.621 187.598C102.746 187.821 102.918 188.008 103.137 188.161C103.352 188.309 103.6 188.42 103.881 188.495C104.158 188.569 104.453 188.606 104.766 188.606ZM99 181.469H108V182.559H99V181.469ZM101.66 177.596L104.619 180.362L106.225 181.909L105.07 181.997L103.746 180.889L101.66 178.92V177.596ZM108 178.586L104.977 180.848L104.01 180.286L108 177.309V178.586ZM104.9 176.764H104.766C104.309 176.764 103.885 176.698 103.494 176.565C103.1 176.432 102.758 176.241 102.469 175.991C102.176 175.741 101.949 175.438 101.789 175.083C101.625 174.727 101.543 174.329 101.543 173.887C101.543 173.442 101.625 173.042 101.789 172.686C101.949 172.327 102.176 172.022 102.469 171.772C102.758 171.518 103.1 171.325 103.494 171.192C103.885 171.059 104.309 170.993 104.766 170.993H104.9C105.357 170.993 105.781 171.059 106.172 171.192C106.562 171.325 106.904 171.518 107.197 171.772C107.486 172.022 107.713 172.325 107.877 172.68C108.037 173.032 108.117 173.43 108.117 173.876C108.117 174.321 108.037 174.721 107.877 175.077C107.713 175.432 107.486 175.737 107.197 175.991C106.904 176.241 106.562 176.432 106.172 176.565C105.781 176.698 105.357 176.764 104.9 176.764ZM104.766 175.68H104.9C105.217 175.68 105.516 175.643 105.797 175.569C106.074 175.495 106.32 175.383 106.535 175.235C106.75 175.083 106.92 174.893 107.045 174.667C107.166 174.44 107.227 174.176 107.227 173.876C107.227 173.579 107.166 173.319 107.045 173.096C106.92 172.87 106.75 172.682 106.535 172.534C106.32 172.385 106.074 172.274 105.797 172.2C105.516 172.122 105.217 172.083 104.9 172.083H104.766C104.453 172.083 104.158 172.122 103.881 172.2C103.6 172.274 103.352 172.387 103.137 172.54C102.918 172.688 102.746 172.876 102.621 173.102C102.496 173.325 102.434 173.586 102.434 173.887C102.434 174.184 102.496 174.446 102.621 174.672C102.746 174.895 102.918 175.083 103.137 175.235C103.352 175.383 103.6 175.495 103.881 175.569C104.158 175.643 104.453 175.68 104.766 175.68ZM106.318 165.942C106.162 165.942 106.018 165.977 105.885 166.047C105.748 166.114 105.625 166.253 105.516 166.463C105.402 166.67 105.305 166.983 105.223 167.401C105.148 167.753 105.061 168.071 104.959 168.356C104.857 168.637 104.734 168.878 104.59 169.077C104.445 169.272 104.275 169.422 104.08 169.528C103.885 169.633 103.656 169.686 103.395 169.686C103.145 169.686 102.908 169.631 102.686 169.522C102.463 169.409 102.266 169.251 102.094 169.047C101.922 168.84 101.787 168.592 101.689 168.303C101.592 168.014 101.543 167.692 101.543 167.336C101.543 166.829 101.633 166.395 101.812 166.036C101.992 165.676 102.232 165.401 102.533 165.21C102.83 165.018 103.16 164.922 103.523 164.922V166.006C103.348 166.006 103.178 166.059 103.014 166.165C102.846 166.266 102.707 166.417 102.598 166.616C102.488 166.811 102.434 167.051 102.434 167.336C102.434 167.637 102.48 167.881 102.574 168.069C102.664 168.253 102.779 168.387 102.92 168.473C103.061 168.555 103.209 168.596 103.365 168.596C103.482 168.596 103.588 168.577 103.682 168.538C103.771 168.495 103.855 168.42 103.934 168.315C104.008 168.21 104.078 168.061 104.145 167.87C104.211 167.678 104.277 167.434 104.344 167.137C104.461 166.618 104.602 166.19 104.766 165.854C104.93 165.518 105.131 165.268 105.369 165.104C105.607 164.94 105.896 164.858 106.236 164.858C106.514 164.858 106.768 164.917 106.998 165.034C107.229 165.147 107.428 165.313 107.596 165.532C107.76 165.747 107.889 166.004 107.982 166.305C108.072 166.602 108.117 166.936 108.117 167.307C108.117 167.866 108.018 168.338 107.818 168.725C107.619 169.112 107.361 169.405 107.045 169.604C106.729 169.803 106.395 169.903 106.043 169.903V168.813C106.34 168.797 106.576 168.711 106.752 168.555C106.924 168.399 107.047 168.208 107.121 167.981C107.191 167.754 107.227 167.53 107.227 167.307C107.227 167.01 107.188 166.762 107.109 166.563C107.031 166.36 106.924 166.206 106.787 166.1C106.65 165.995 106.494 165.942 106.318 165.942ZM100.723 167.764L99 166.628V165.321L100.723 166.891V167.764ZM107.227 160.897C107.227 160.639 107.174 160.401 107.068 160.182C106.963 159.963 106.818 159.784 106.635 159.643C106.447 159.503 106.234 159.422 105.996 159.403V158.372C106.371 158.391 106.721 158.518 107.045 158.753C107.365 158.983 107.625 159.286 107.824 159.661C108.02 160.036 108.117 160.448 108.117 160.897C108.117 161.374 108.033 161.79 107.865 162.145C107.697 162.497 107.467 162.79 107.174 163.024C106.881 163.254 106.545 163.428 106.166 163.545C105.783 163.659 105.379 163.715 104.953 163.715H104.707C104.281 163.715 103.879 163.659 103.5 163.545C103.117 163.428 102.779 163.254 102.486 163.024C102.193 162.79 101.963 162.497 101.795 162.145C101.627 161.79 101.543 161.374 101.543 160.897C101.543 160.401 101.645 159.967 101.848 159.596C102.047 159.225 102.32 158.934 102.668 158.723C103.012 158.508 103.402 158.391 103.84 158.372V159.403C103.578 159.422 103.342 159.497 103.131 159.626C102.92 159.751 102.752 159.922 102.627 160.141C102.498 160.356 102.434 160.608 102.434 160.897C102.434 161.229 102.5 161.508 102.633 161.735C102.762 161.958 102.938 162.135 103.16 162.268C103.379 162.397 103.623 162.491 103.893 162.549C104.158 162.604 104.43 162.631 104.707 162.631H104.953C105.23 162.631 105.504 162.604 105.773 162.549C106.043 162.495 106.287 162.403 106.506 162.274C106.725 162.141 106.9 161.963 107.033 161.741C107.162 161.514 107.227 161.233 107.227 160.897ZM100.723 161.735L99 160.598V159.292L100.723 160.862V161.735Z" fill="#101010"/>
<path d="M131.646 51.6464C131.451 51.8416 131.451 52.1582 131.646 52.3535L134.828 55.5355C135.024 55.7307 135.34 55.7307 135.536 55.5355C135.731 55.3402 135.731 55.0236 135.536 54.8284L132.707 51.9999L135.536 49.1715C135.731 48.9762 135.731 48.6597 135.536 48.4644C135.34 48.2691 135.024 48.2691 134.828 48.4644L131.646 51.6464ZM269.354 52.3535C269.549 52.1582 269.549 51.8416 269.354 51.6464L266.172 48.4644C265.976 48.2691 265.66 48.2691 265.464 48.4644C265.269 48.6597 265.269 48.9762 265.464 49.1715L268.293 51.9999L265.464 54.8284C265.269 55.0236 265.269 55.3402 265.464 55.5355C265.66 55.7307 265.976 55.7307 266.172 55.5355L269.354 52.3535ZM132 52.4999L269 52.4999L269 51.4999L132 51.4999L132 52.4999Z" fill="#101010"/>
<path d="M181.338 43.8437C181.338 43.6445 181.307 43.4687 181.244 43.3163C181.186 43.1601 181.08 43.0195 180.928 42.8945C180.779 42.7695 180.572 42.6503 180.307 42.537C180.045 42.4238 179.713 42.3085 179.311 42.1913C178.889 42.0663 178.508 41.9277 178.168 41.7753C177.828 41.6191 177.537 41.4413 177.295 41.2421C177.053 41.0429 176.867 40.8144 176.738 40.5566C176.609 40.2988 176.545 40.0038 176.545 39.6718C176.545 39.3398 176.613 39.0331 176.75 38.7519C176.887 38.4706 177.082 38.2265 177.336 38.0195C177.594 37.8085 177.9 37.6445 178.256 37.5273C178.611 37.4101 179.008 37.3515 179.445 37.3515C180.086 37.3515 180.629 37.4745 181.074 37.7206C181.523 37.9628 181.865 38.2812 182.1 38.6757C182.334 39.0663 182.451 39.4843 182.451 39.9296H181.326C181.326 39.6093 181.258 39.3261 181.121 39.08C180.984 38.83 180.777 38.6347 180.5 38.4941C180.223 38.3495 179.871 38.2773 179.445 38.2773C179.043 38.2773 178.711 38.3378 178.449 38.4589C178.188 38.58 177.992 38.7441 177.863 38.9511C177.738 39.1581 177.676 39.3945 177.676 39.6601C177.676 39.8398 177.713 40.0038 177.787 40.1523C177.865 40.2968 177.984 40.4316 178.145 40.5566C178.309 40.6816 178.516 40.7968 178.766 40.9023C179.02 41.0078 179.322 41.1093 179.674 41.207C180.158 41.3437 180.576 41.496 180.928 41.664C181.279 41.832 181.568 42.0214 181.795 42.2324C182.025 42.4394 182.195 42.6757 182.305 42.9413C182.418 43.2031 182.475 43.4999 182.475 43.832C182.475 44.1796 182.404 44.4941 182.264 44.7753C182.123 45.0566 181.922 45.2968 181.66 45.496C181.398 45.6953 181.084 45.8495 180.717 45.9589C180.354 46.0644 179.947 46.1171 179.498 46.1171C179.104 46.1171 178.715 46.0624 178.332 45.9531C177.953 45.8437 177.607 45.6796 177.295 45.4609C176.986 45.2421 176.738 44.9726 176.551 44.6523C176.367 44.3281 176.275 43.9531 176.275 43.5273H177.4C177.4 43.8203 177.457 44.0722 177.57 44.2831C177.684 44.4902 177.838 44.662 178.033 44.7988C178.232 44.9355 178.457 45.037 178.707 45.1035C178.961 45.166 179.225 45.1972 179.498 45.1972C179.893 45.1972 180.227 45.1425 180.5 45.0331C180.773 44.9238 180.98 44.7675 181.121 44.5644C181.266 44.3613 181.338 44.121 181.338 43.8437ZM188.475 45.1093V45.9999H183.863V45.1093H188.475ZM188.305 40.4277L184.109 45.9999H183.447V45.2031L187.613 39.6601H188.305V40.4277ZM187.824 39.6601V40.5566H183.494V39.6601H187.824ZM192.242 46.1171C191.801 46.1171 191.4 46.0429 191.041 45.8945C190.686 45.7421 190.379 45.5292 190.121 45.2558C189.867 44.9824 189.672 44.6581 189.535 44.2831C189.398 43.9081 189.33 43.498 189.33 43.0527V42.8066C189.33 42.291 189.406 41.832 189.559 41.4296C189.711 41.0234 189.918 40.6796 190.18 40.3984C190.441 40.1171 190.738 39.9042 191.07 39.7597C191.402 39.6152 191.746 39.5429 192.102 39.5429C192.555 39.5429 192.945 39.621 193.273 39.7773C193.605 39.9335 193.877 40.1523 194.088 40.4335C194.299 40.7109 194.455 41.039 194.557 41.4179C194.658 41.7929 194.709 42.2031 194.709 42.6484V43.1347H189.975V42.2499H193.625V42.1679C193.609 41.8867 193.551 41.6132 193.449 41.3476C193.352 41.082 193.195 40.8632 192.98 40.6913C192.766 40.5195 192.473 40.4335 192.102 40.4335C191.855 40.4335 191.629 40.4863 191.422 40.5917C191.215 40.6933 191.037 40.8456 190.889 41.0488C190.74 41.2519 190.625 41.4999 190.543 41.7929C190.461 42.0859 190.42 42.4238 190.42 42.8066V43.0527C190.42 43.3535 190.461 43.6367 190.543 43.9023C190.629 44.164 190.752 44.3945 190.912 44.5937C191.076 44.7929 191.273 44.9492 191.504 45.0624C191.738 45.1757 192.004 45.2324 192.301 45.2324C192.684 45.2324 193.008 45.1542 193.273 44.998C193.539 44.8417 193.771 44.6328 193.971 44.371L194.627 44.8925C194.49 45.0995 194.316 45.2968 194.105 45.4843C193.895 45.6718 193.635 45.8242 193.326 45.9413C193.021 46.0585 192.66 46.1171 192.242 46.1171ZM197.059 40.6562V45.9999H195.975V39.6601H197.029L197.059 40.6562ZM199.039 39.6249L199.033 40.6328C198.943 40.6132 198.857 40.6015 198.775 40.5976C198.697 40.5898 198.607 40.5859 198.506 40.5859C198.256 40.5859 198.035 40.6249 197.844 40.7031C197.652 40.7812 197.49 40.8906 197.357 41.0312C197.225 41.1718 197.119 41.3398 197.041 41.5351C196.967 41.7265 196.918 41.9374 196.895 42.1679L196.59 42.3437C196.59 41.9609 196.627 41.6015 196.701 41.2656C196.779 40.9296 196.898 40.6328 197.059 40.3749C197.219 40.1132 197.422 39.9101 197.668 39.7656C197.918 39.6171 198.215 39.5429 198.559 39.5429C198.637 39.5429 198.727 39.5527 198.828 39.5722C198.93 39.5878 199 39.6054 199.039 39.6249ZM199.637 42.9003V42.7656C199.637 42.3085 199.703 41.8847 199.836 41.4941C199.969 41.0995 200.16 40.7578 200.41 40.4687C200.66 40.1757 200.963 39.9492 201.318 39.789C201.674 39.6249 202.072 39.5429 202.514 39.5429C202.959 39.5429 203.359 39.6249 203.715 39.789C204.074 39.9492 204.379 40.1757 204.629 40.4687C204.883 40.7578 205.076 41.0995 205.209 41.4941C205.342 41.8847 205.408 42.3085 205.408 42.7656V42.9003C205.408 43.3574 205.342 43.7812 205.209 44.1718C205.076 44.5624 204.883 44.9042 204.629 45.1972C204.379 45.4863 204.076 45.7128 203.721 45.8769C203.369 46.037 202.971 46.1171 202.525 46.1171C202.08 46.1171 201.68 46.037 201.324 45.8769C200.969 45.7128 200.664 45.4863 200.41 45.1972C200.16 44.9042 199.969 44.5624 199.836 44.1718C199.703 43.7812 199.637 43.3574 199.637 42.9003ZM200.721 42.7656V42.9003C200.721 43.2167 200.758 43.5156 200.832 43.7968C200.906 44.0742 201.018 44.3203 201.166 44.5351C201.318 44.7499 201.508 44.9199 201.734 45.0449C201.961 45.166 202.225 45.2265 202.525 45.2265C202.822 45.2265 203.082 45.166 203.305 45.0449C203.531 44.9199 203.719 44.7499 203.867 44.5351C204.016 44.3203 204.127 44.0742 204.201 43.7968C204.279 43.5156 204.318 43.2167 204.318 42.9003V42.7656C204.318 42.4531 204.279 42.1581 204.201 41.8808C204.127 41.5995 204.014 41.3515 203.861 41.1367C203.713 40.9179 203.525 40.746 203.299 40.621C203.076 40.496 202.814 40.4335 202.514 40.4335C202.217 40.4335 201.955 40.496 201.729 40.621C201.506 40.746 201.318 40.9179 201.166 41.1367C201.018 41.3515 200.906 41.5995 200.832 41.8808C200.758 42.1581 200.721 42.4531 200.721 42.7656ZM207.857 36.9999V45.9999H206.768V36.9999H207.857ZM211.73 39.6601L208.965 42.6191L207.418 44.2245L207.33 43.0703L208.438 41.746L210.406 39.6601H211.73ZM210.74 45.9999L208.479 42.9765L209.041 42.0097L212.018 45.9999H210.74ZM212.562 42.9003V42.7656C212.562 42.3085 212.629 41.8847 212.762 41.4941C212.895 41.0995 213.086 40.7578 213.336 40.4687C213.586 40.1757 213.889 39.9492 214.244 39.789C214.6 39.6249 214.998 39.5429 215.439 39.5429C215.885 39.5429 216.285 39.6249 216.641 39.789C217 39.9492 217.305 40.1757 217.555 40.4687C217.809 40.7578 218.002 41.0995 218.135 41.4941C218.268 41.8847 218.334 42.3085 218.334 42.7656V42.9003C218.334 43.3574 218.268 43.7812 218.135 44.1718C218.002 44.5624 217.809 44.9042 217.555 45.1972C217.305 45.4863 217.002 45.7128 216.646 45.8769C216.295 46.037 215.896 46.1171 215.451 46.1171C215.006 46.1171 214.605 46.037 214.25 45.8769C213.895 45.7128 213.59 45.4863 213.336 45.1972C213.086 44.9042 212.895 44.5624 212.762 44.1718C212.629 43.7812 212.562 43.3574 212.562 42.9003ZM213.646 42.7656V42.9003C213.646 43.2167 213.684 43.5156 213.758 43.7968C213.832 44.0742 213.943 44.3203 214.092 44.5351C214.244 44.7499 214.434 44.9199 214.66 45.0449C214.887 45.166 215.15 45.2265 215.451 45.2265C215.748 45.2265 216.008 45.166 216.23 45.0449C216.457 44.9199 216.645 44.7499 216.793 44.5351C216.941 44.3203 217.053 44.0742 217.127 43.7968C217.205 43.5156 217.244 43.2167 217.244 42.9003V42.7656C217.244 42.4531 217.205 42.1581 217.127 41.8808C217.053 41.5995 216.939 41.3515 216.787 41.1367C216.639 40.9179 216.451 40.746 216.225 40.621C216.002 40.496 215.74 40.4335 215.439 40.4335C215.143 40.4335 214.881 40.496 214.654 40.621C214.432 40.746 214.244 40.9179 214.092 41.1367C213.943 41.3515 213.832 41.5995 213.758 41.8808C213.684 42.1581 213.646 42.4531 213.646 42.7656ZM223.385 44.3183C223.385 44.162 223.35 44.0175 223.279 43.8847C223.213 43.748 223.074 43.6249 222.863 43.5156C222.656 43.4023 222.344 43.3046 221.926 43.2226C221.574 43.1484 221.256 43.0605 220.971 42.9589C220.689 42.8574 220.449 42.7343 220.25 42.5898C220.055 42.4453 219.904 42.2753 219.799 42.08C219.693 41.8847 219.641 41.6562 219.641 41.3945C219.641 41.1445 219.695 40.9081 219.805 40.6855C219.918 40.4628 220.076 40.2656 220.279 40.0937C220.486 39.9218 220.734 39.787 221.023 39.6894C221.312 39.5917 221.635 39.5429 221.99 39.5429C222.498 39.5429 222.932 39.6328 223.291 39.8124C223.65 39.9921 223.926 40.2324 224.117 40.5331C224.309 40.83 224.404 41.1601 224.404 41.5234H223.32C223.32 41.3476 223.268 41.1777 223.162 41.0136C223.061 40.8456 222.91 40.707 222.711 40.5976C222.516 40.4882 222.275 40.4335 221.99 40.4335C221.689 40.4335 221.445 40.4804 221.258 40.5742C221.074 40.664 220.939 40.7792 220.854 40.9199C220.771 41.0605 220.73 41.2089 220.73 41.3652C220.73 41.4824 220.75 41.5878 220.789 41.6816C220.832 41.7714 220.906 41.8554 221.012 41.9335C221.117 42.0078 221.266 42.0781 221.457 42.1445C221.648 42.2109 221.893 42.2773 222.189 42.3437C222.709 42.4609 223.137 42.6015 223.473 42.7656C223.809 42.9296 224.059 43.1308 224.223 43.3691C224.387 43.6074 224.469 43.8964 224.469 44.2363C224.469 44.5136 224.41 44.7675 224.293 44.998C224.18 45.2285 224.014 45.4277 223.795 45.5956C223.58 45.7597 223.322 45.8886 223.021 45.9824C222.725 46.0722 222.391 46.1171 222.02 46.1171C221.461 46.1171 220.988 46.0175 220.602 45.8183C220.215 45.6191 219.922 45.3613 219.723 45.0449C219.523 44.7285 219.424 44.3945 219.424 44.0429H220.514C220.529 44.3398 220.615 44.5761 220.771 44.7519C220.928 44.9238 221.119 45.0468 221.346 45.121C221.572 45.1913 221.797 45.2265 222.02 45.2265C222.316 45.2265 222.564 45.1874 222.764 45.1093C222.967 45.0312 223.121 44.9238 223.227 44.787C223.332 44.6503 223.385 44.4941 223.385 44.3183ZM221.562 38.7226L222.699 36.9999H224.006L222.436 38.7226H221.562ZM228.43 45.2265C228.688 45.2265 228.926 45.1738 229.145 45.0683C229.363 44.9628 229.543 44.8183 229.684 44.6347C229.824 44.4472 229.904 44.2343 229.924 43.996H230.955C230.936 44.371 230.809 44.7206 230.574 45.0449C230.344 45.3652 230.041 45.6249 229.666 45.8242C229.291 46.0195 228.879 46.1171 228.43 46.1171C227.953 46.1171 227.537 46.0331 227.182 45.8652C226.83 45.6972 226.537 45.4667 226.303 45.1738C226.072 44.8808 225.898 44.5449 225.781 44.166C225.668 43.7831 225.611 43.3788 225.611 42.9531V42.707C225.611 42.2812 225.668 41.8788 225.781 41.4999C225.898 41.1171 226.072 40.7792 226.303 40.4863C226.537 40.1933 226.83 39.9628 227.182 39.7949C227.537 39.6269 227.953 39.5429 228.43 39.5429C228.926 39.5429 229.359 39.6445 229.73 39.8476C230.102 40.0468 230.393 40.3203 230.604 40.6679C230.818 41.0117 230.936 41.4023 230.955 41.8398H229.924C229.904 41.5781 229.83 41.3417 229.701 41.1308C229.576 40.9199 229.404 40.7519 229.186 40.6269C228.971 40.498 228.719 40.4335 228.43 40.4335C228.098 40.4335 227.818 40.4999 227.592 40.6328C227.369 40.7617 227.191 40.9374 227.059 41.1601C226.93 41.3788 226.836 41.623 226.777 41.8925C226.723 42.1581 226.695 42.4296 226.695 42.707V42.9531C226.695 43.2304 226.723 43.5038 226.777 43.7734C226.832 44.0429 226.924 44.287 227.053 44.5058C227.186 44.7245 227.363 44.9003 227.586 45.0331C227.812 45.162 228.094 45.2265 228.43 45.2265ZM227.592 38.7226L228.729 36.9999H230.035L228.465 38.7226H227.592Z" fill="#101010"/>
<path d="M1 369L29.9931 340.007H370.87L399.863 369" stroke="#101010"/>
<path d="M2 1.00003L30.9931 29.9932H371.87L400.863 1.00003" stroke="#101010"/>
<rect x="147.777" y="85.1765" width="104.58" height="165.749" stroke="#101010"/>
<rect x="141.75" y="78.054" width="116.311" height="179.156" stroke="#101010"/>
<rect x="132.535" y="62.9713" width="135.583" height="209.321" stroke="#101010"/>
<rect x="125.412" y="273.293" width="148.99" height="6.5414" stroke="#101010"/>
<path d="M200.295 84.6765L200.295 251.006" stroke="#101010"/>
</svg>
